<svg width="1874" height="151" fill="none" xmlns="http://www.w3.org/2000/svg">
  <path fill-rule="evenodd" clip-rule="evenodd" d="M642.054 1.91762c-.262 1.09904-.823 3.10818-1.247 4.46349-.423 1.35531-.952 3.20346-1.174 4.10699-.651 2.6449-3.271 19.0203-4.009 25.0527-.156 1.2797-.404 3.0671-.548 3.9706-.217 1.3422-.483 3.2922-.544 3.969-.007.0756-.974.1462-2.152.1561l-2.137.018-1.947-5.6315c-1.071-3.0966-2.703-7.5404-3.624-9.8748-.922-2.3344-2.045-5.2241-2.497-6.4217-1.497-3.969-4.567-10.2806-5.003-10.2806-.468 0 .15 5.8746 1.024 9.7204.439 1.9336 2.219 6.5893 4.307 11.263.278.621.988 2.5316 1.577 4.2434.59 1.7117 1.279 3.6667 1.53 4.3435.251.6785.805 2.226 1.227 3.4384l.771 2.2063-.52 1.0103c-.285.5569-.598 1.012-.693 1.012-.185 0-3.762-3.1016-4.467-3.8721-.915-1.0005-4.44-4.0676-4.675-4.0676-.14 0-.253 1.2781-.253 2.8404v2.8421l1.851 1.7446c1.019.9594 3.084 2.5628 4.587 3.5616 1.503 1.0005 3.754 2.773 4.999 3.9394l2.264 2.1225-.207 1.2633c-.488 2.9735-.25 5.5313.673 7.1938l.861 1.5525-1.127 1.5968c-2.7 3.8293-3.77 6.4118-3.77 9.0978 0 1.3192-.177 1.8219-1.363 3.877-.845 1.4637-1.528 3.0803-1.799 4.2532-.24 1.0416-.62 2.456-.845 3.146-.223.6883-.368 1.876-.322 2.6399l.084 1.3866 1.896-1.7283 1.896-1.7298.601 1.2797c.33.7031.918 1.5722 1.308 1.9303l.706.6505.15-.6505c.08-.3581.259-1.5754.394-2.704.136-1.1303.55-2.8552.92-3.8343l.67-1.7792 1.633-.0805 1.631-.0805-.197 1.587c-.11.8723-.209 2.8946-.222 4.4963l-.023 2.9094-1.437 1.0875c-.79.5996-3.225 2.3-5.408 3.7801-6.315 4.2823-8.28 5.6433-9.377 6.4953l-1.027.797v6.412c0 5.516.057 6.41.411 6.41.235 0 .424.265.442.616.106 2.175 1.148 5.788 2.166 7.531l.521.889H617v-.585l1 22.957h638.23l-1-20.639c0-41.5615-.05-46.2303-.43-46.6574-.37-.4009-.39-.7196-.14-2.0749.46-2.4346.9-11.953.7-14.8164l-.19-2.5398-1.27.1692-1.27.1676-1.65-3.3447c-2.9-5.9059-7.9-9.157-15.78-10.2692-1.24-.1741-1.27-.202-1.29-1.1795-.15-6.1966-8.26-8.1335-18.32-4.3715l-1.45.5405-.53-.639c-.91-1.0843-.97-1.6609-.24-2.1143 3.47-2.1603 6.03-6.7848 4.98-8.9894-1.73-3.6503-8.3-1.7233-8.3 2.4346 0 .9019-.13 1.0744-1.44 1.8827-.79.4895-2.08 1.3011-2.86 1.8054-1.21.7705-1.54.8723-2.14.644-4.06-1.5426-8.2 2.7862-5.96 6.2344 1.59 2.4609 3.98 2.4511 8.98-.0345 1.91-.9528 1.92-.9528 2.39-.3959.74.8608.6 1.1187-1.09 2.0026-3.54 1.8432-7.6 6.6172-8.55 10.0276-.3 1.1105-.8 2.3278-1.09 2.704-2.98 3.79-5.92 9.1488-5.71 10.4154.08.478.28.4058 1.98-.6916 2.18-1.403 2.04-1.4424 2.76.754.85 2.6039 1.58 2.0404 2.84-2.1767.8-2.7024 1.71-3.7521 3.02-3.5074 1.66.3122 1.66.3122.8 3.284-1.15 3.9789-1.36 5.1814-1.35 8.0349.01 2.5053-.01 2.5562-.6 2.4133-1.6-.3861-7.65-.7738-9.49-.6062-4.55.4107-6.46 2.5003-5.23 5.7301.25.6637.21.6949-1.3.9955-2.07.4107-4.73 1.1188-5.32 1.4145-.34.1725-.77.018-1.56-.552-.6-.4354-1.46-.9446-1.92-1.1319-.8-.3335-.82-.3762-.66-1.8038.2-1.8334-.31-4.0166-1.17-5.0417l-.66-.7837 2.23-6.2508c1.22-3.4384 2.76-7.731 3.41-9.5381.64-1.8071 1.74-4.8873 2.43-6.8439 1.34-3.7866 1.19-3.5698 4.58-6.4726 1.02-.8723 2.42-2.6712 4.46-5.7498 1.64-2.4642 3.57-5.1781 4.3-6.0324 1.17-1.3734 1.33-1.7003 1.33-2.8272 0-.6999.36-2.9587.8-5.0171.43-2.0601.87-4.7937.96-6.0735.57-8.2517.61-7.8213-.63-6.9539-.62.4353-1.08 1.3175-1.3 2.5118-.52 2.7205-3.21 7.5487-5.41 9.7024-1.49 1.4571-2.09 1.0103-2.09-1.559 0-2.1718 2.99-14.7951 4.34-18.28109.89-2.3147.72-2.63505-.62-1.1746-1.23 1.34873-2.78 4.23019-5.22 9.73189-3.79 8.5623-5.77 12.0467-6.85 12.0467-1.7 0-1.51-4.2467.42-8.8991.55-1.329 1.59-4.1661 1.76-4.7904l.18-.685-.5.5832c-.27.3203-.99 1.1812-1.59 1.9122-1.89 2.295-5.59 6.6764-6.1 7.2283-1.69 1.8071-2.08 10.1098-.8 16.9718.71 3.8441 1.3 8.0234 1.5 10.7751.09 1.3011-.04 2.0206-.72 3.8326-.45 1.2272-2.2 5.9272-3.87 10.4449-1.68 4.5177-3.32 8.9319-3.65 9.8075-.41 1.104-.91 1.8498-1.63 2.4265-1.58 1.2715-1.89 2.0797-1.68 4.4059l.17 1.978-1.37 2.0535c-.82 1.2238-1.57 2.7467-1.85 3.7653-.61 2.2194-.2 2.433-5.84-3.0934-5.4-5.2948-7.32-6.9047-9.69-8.099-1.45-.7344-1.56-.8576-1.41-1.5459.36-1.6576.78-2.295 1.95-2.985.67-.3926 1.52-1.1877 1.89-1.7692.85-1.3504 1.23-1.3307 2.01.1067.36.6391.84 1.3849 1.07 1.656.39.455.34.57-.69 1.5064-3.15 2.8634-2.84 4.8331.55 3.6043 5.46-1.9746 9.76-5.3128 9.76-7.5667 0-1.0416-1.64-.8543-4.05.46l-2 1.0891-.66-.7097c-1.33-1.4341-1.39-2.3541-.26-3.9936 3.03-4.3797-1.76-12.6692-7.04-12.1912l-1.58.1429-.94-1.2731c-.51-.7015-1.66-2.7534-2.56-4.5604-1.47-2.9538-3.87-7.2284-9.9-17.6601-6.04-10.4219-1.02 2.5102 5.99 15.4702 2.95 5.4327 4.93 9.2999 4.93 9.589 0 .0723-.41.1298-.91.1298-2.26 0-5.66 1.9566-5.66 3.2593 0 .1347-1.52.2875-3.37.3417-3.67.1035-5.05.6637-5.67 2.2999-.25.6687-.8.7163-1.81.1594-3.42-1.8843-9.17-2.9324-11.39-2.0798-.3.1133-.52-.5323-.97-2.8059-1.44-7.3482-6.48-13.075-12.47-14.1905l-1.05-.1955.18-1.5951c.49-4.1892-2.04-5.942-8.95-6.2115-10.24-.3992-17.28 2.4232-21.42 8.6001-.7 1.0497-1.94 2.341-3.19 3.3234-2.27 1.7955-3.06 2.7287-4.48 5.3111-1.38 2.5102-1.3 2.5726 1.69 1.3619l1.44-.5815v2.4313c0 1.835.1 2.4658.39 2.5776.64.248 1.28-.7147 1.09-1.6494-.19-.966 1.88-4.3912 3.03-5.0073.65-.3482 2.46-.1971 2.72.23.42.6867-1.26 2.5053-2.32 2.5053-2.1 0-3.07 2.5365-1.45 3.8096.68.5372.7.6243.41 1.7841-1.25 4.9629 1.47 12.5066 5.19 14.4074.98.4994 1.42 1.0809.82 1.0809-.13 0-1.46 1.0908-2.95 2.4248-2.47 2.2178-4.35 3.5369-4.63 3.2527-.06-.0608-.38-1.5787-.7-3.3743-.34-1.8547-.76-3.4006-.99-3.5846-.5-.4189-6.69-.8739-12.29-.9051-.45-.0033-.79-.3861-1.37-1.5443-1.56-3.0966-4.3-3.872-7.86-2.2194-.88.4124-1.65.7475-1.7.7475-.19 0-.74-1.2108-1.52-3.3694-.43-1.2157-1.04-2.6252-1.34-3.1328-.78-1.329 1.09-3.0803 3.29-3.0803.94 0 4.25 4.2828 4.92 6.3659.58 1.8038 1.36.6144 1.42-2.1702l.03-1.3848 2.13.9216c2.54 1.1007 2.83 1.1351 2.57.3055-.8-2.5825-3.92-6.9112-6.08-8.4193-2.12-1.4851-2.76-2.2063-3.23-3.6306-.58-1.7528-3.21-4.567-5.82-6.2262-2.32-1.4719-2.41-.7705.94-7.3121 4.31-8.4407 4.5-11.7641.73-12.8943-4.22-1.2649-6.13 1.058-9.64 11.7-1.57 4.7575-1.15 4.5604-7.49 3.5534-11.22-1.7808-18.42 1.8744-16.49 8.3766.15.4846-.1.6243-2.1 1.2157-3.44 1.0119-8.89 4.061-10.735 6.0044l-.795.8378-.984-.8509c-.542-.4682-2.019-1.789-3.281-2.9341-3.158-2.8634-4.176-3.0589-6.236-1.1992-3.31 2.9899-2.185 5.6873 4.426 10.6223l2.189 1.6362-.8 3.0113c-1.038 3.9164-1.217 12.2865-.331 15.6066 1.44 5.4048 4.933 9.428 9.377 10.803l1.509.4666-2.139 1.4719c-4 2.7496-6.546 5.6446-8.877 10.0936-1.617 3.085-3.401 1.352-4.25-4.13-.67-4.326-.388-5.7057 1.414-6.9016 2.78-1.8465 3.066-4.2894 1.032-8.8284-.616-1.3767-1.327-3.4088-1.579-4.5144-.634-2.7862-2.268-5.947-4.233-8.1795-.33-.3762-.82-.9315-1.088-1.2321-3.067-3.4581-8.22-6.31-11.328-6.2689-3.873.0509-6.115 4.8643-4.75 10.1935.396 1.5508.153 3.3415-.453 3.33-.035-.0017-.669-.3089-1.41-.6851-.818-.4156-1.81-.6834-2.528-.6834-1.074 0-1.216-.0805-1.554-.8904-.204-.4895-1.239-1.9138-2.298-3.1673-1.541-1.8202-2.047-2.6564-2.527-4.1743-2.011-6.3725-11.82-11.8167-21.37-11.861-5.146-.023-7.014 1.306-7.453 5.3062-.066.5881-.251.7064-1.362.8641-.708.1002-1.398.2513-1.534.3368-.539.3318-1.122-.6062-1.513-2.4314-.693-3.2412-3.194-14.2085-3.355-14.7161-.151-.4764-1.327-.6818-1.578-.2744-.372.6013 2.214 12.5493 3.504 16.1881.233.6588.423 1.3044.423 1.4342 0 .3204-1.821 1.4457-3.063 1.8942l-1.009.363-2.003-1.7808c-1.1-.9791-2.36-2.0798-2.797-2.4445-.437-.3647-1.122-.9709-1.522-1.3487-.397-.3762-1.572-1.4227-2.607-2.3262-1.035-.9035-2.507-2.226-3.27-2.9373-1.689-1.5738-2.31-1.8285-2.81-1.1467-.501.6867-.971.1988 6.555 6.7979 3.728 3.2692 6.775 6.0291 6.775 6.1326-.002.1035-.55.7425-1.221 1.421-.668.6768-1.222 1.4013-1.228 1.6083-.023.6932-2.197.0936-5.586-1.541l-3.244-1.5639-.538.662-.537.6637.693.3631c.382.1988 1.949.8526 3.483 1.4506 3.645 1.421 4.347 1.7364 4.347 1.9648 0 .1035-.383 1.2123-.851 2.4658-3.47 9.295-2.693 16.8157 2.075 20.052 1.235.8378 1.332.7803-3.13 1.8155-2.669.619-3.266.68-3.844.391-5.996-2.9951-13.305-1.5839-15.34 2.963l-.487 1.086-1.13-1.79c-1.275-2.019-2.078-2.663-3.318-2.663-.47 0-.808-.094-.753-.206.056-.113.684-1.3764 1.392-2.8073 2.441-4.9201 3.031-9.7549 1.588-13.0142l-.589-1.3356 1.72-1.5048c4.457-3.8983 5.478-5.2274 4.018-5.2274-.519 0-2.144-.7113-2.435-1.0645-.134-.1643-1.217-.7935-2.679-1.5574-.434-.225-1.544-.3877-2.665-.3877l-1.923-.0016-.533-.9906c-.808-1.4999-3.216-3.4844-5.483-4.5194-2.325-1.0596-2.251-.9479-1.324-2.0042l.708-.805 2.723 1.4457c3.084 1.6362 3.432 1.7562 7.174 2.4921 3.45.6785 4.5 1.3488 5.675 3.6273.696 1.3504.992 1.2962 1.22-.225.966-6.4447-6.978-13.0701-13.94-11.6245-1.97.4091-1.977.4009-1.397-1.5458 1.073-3.5994.966-5.3128-.609-9.9094-1.845-5.3851-4.725-8.3355-8.517-8.7265l-1.509-.1561.192.7639c.105.4205.478 1.1483.829 1.6165 1.624 2.1718 1.753 2.9275 1.399 8.1368-.272 3.9608-.132 4.4191 2.357 7.6735 2.822 3.693 2.858 3.9017.94 5.4245-2.382 1.8892-3.626 1.6034-4.282-.984-.952-3.7686-3.624-7.0805-7.423-9.2046-2.35-1.3159-2.327-1.3225-2.198.708.08 1.2502-.063 2.3295-.516 3.9017-.396 1.3733-.631 2.9422-.641 4.2647l-.015 2.0913-1.47.1741c-2.075.2431-4.721 1.1302-7.473 2.5053l-2.364 1.1811-.867-2.4264c-.96-2.6794-2.389-4.5916-4.089-5.4672-1.599-.8247-3.296-2.4412-3.536-3.3678-.404-1.5606-.793-1.076-1.966 2.4544-1.173 3.532-1.516 6.0866-1.042 7.7704l.199.7097-2.579.3171c-1.418.1741-3.018.317-3.553.317-1.055 0-1.219.3368-.61 1.2404.2.2957.815 1.623 1.364 2.9488 2.648 6.3921 6.007 8.1992 9.584 5.1518.466-.3959.463-.3286-.045 1.0727-.299.8231-.877 2.6663-1.284 4.0972-.409 1.4308-.884 2.8781-1.058 3.2149l-.314.6144-1.674-1.1614c-.92-.6391-2.431-1.6937-3.358-2.3426-2.28-1.5985-4.128-2.4166-6.363-2.8158-2.104-.3762-2.051-.2678-1.434-2.8995.771-3.2824.271-5.4903-2.15-9.5053l-1.14-1.8908.673-.4354c3.363-2.1767 5.729-6.3905 5.077-9.0403-.587-2.3821-2.806-2.8601-4.576-.984-1.089 1.1549-2.157.9594-5.317-.9792-1.224-.7507-2.645-1.4801-3.159-1.6214l-.934-.2579.087-4.4536c.05-2.4478.129-4.4914.176-4.5391.155-.1544 2.164.7705 2.67 1.2288 1.074.9726 7.701-2.0173 8-3.6108.138-.736.444-1.1352 1.275-1.6593 2.527-1.5951 1.881-4.3813-1.165-5.0335-.798-.1725-2.135-.7885-3.078-1.4177-3.131-2.0946-8.375.1281-8.375 3.5501 0 1.2238-.344.8821-.92-.9167-.881-2.7484-.784-3.1854.782-3.5518 1.697-.3975 2.947-1.0382 3.604-1.8497.44-.5438.794-.6325 2.826-.6999 3.223-.1068 8.493-1.4736 8.493-2.203 0-.2513-.283-.3811-2.794-1.2896l-1.288-.4649.808-1.6017c1.247-2.4708 1.222-2.4856-2.34-1.4112-1.054.3187-2.656.713-3.559.8773l-1.643.299-.822-.9151c-.451-.5043-1.314-1.6198-1.915-2.4789-3.524-5.0254-16.64-9.9636-24.02-9.0404-5.695.7114-8.113 3.9395-6.134 8.1894l.644 1.3832-2.121.3335c-1.166.184-3.024.6423-4.131 1.0185-2.578.8756-2.497.9249-4.134-2.5414-2.692-5.7087-2.847-6.6106-1.422-8.3158 1.812-2.1701.598-4.52592-2.213-4.29265-1.38.115-5.617 1.94015-5.617 2.42145 0 .1233-.228.2957-.507.3845-3.422 1.0858-2.91 4.8035.662 4.8035 1.999 0 2.048.0509 3.093 3.233.311.9496 1.12 2.617 1.799 3.7045.678 1.0876 1.406 2.4708 1.62 3.0737l.386 1.0974-1.334 1.7693c-.735.9742-1.336 1.8629-1.336 1.9763-.006.7294-.535-.0017-.691-.9594-.224-1.3603-.546-1.7693-2.668-3.3842-1.656-1.2617-2.515-1.4571-3.95-.9035-1.309.506-1.817.529-2.459.1084-1.367-.8953-4.076.3039-4.117 1.8235-.005.2037-.098.8231-.208 1.3767-.173.8723-.105 1.0875.512 1.6231.583.5076.71.8575.71 1.9549 0 2.9669 4.93 6.673 7.55 5.6758 1.057-.4008 1.065-.3071.194 2.4117l-.785 2.451-1.914-.9889c-3.1-1.6034-4.802-2.2704-6.589-2.5792l-1.681-.2924-.123-1.467c-.749-9.0371-24.964-1.9763-27.019 7.8805-.242 1.1565-.744 2.0732-2.246 4.0922-2.009 2.7024-2.895 4.3698-3.141 5.9206l-.145.9085 1.413-.9512c2.159-1.4522 2.256-1.2847.629 1.0957-.202.2974-.368 1.0054-.368 1.5755 0 1.0333-.001 1.0333-1.163 1.0415-.982.0049-3.449.708-5.174 1.472-.37.1642-.49-.0181-.649-.9824-.538-3.2462-2.588-4.6541-4.295-2.9488-.972.9741-.951 2.7467.066 5.4228.541 1.4227.541 1.426-.015 2.5119-.693 1.3602-.839 1.3553-2.36-.0756-2.455-2.3065-5.494-1.3865-4.464 1.3504.34.9068 2.218 2.9044 3.452 3.6716l.865.5389-.499 1.4292c-.274.7853-.587 2.0141-.692 2.7303-.269 1.8104-2.12 2.0404-2.447.3023-.758-4.0364-5.819-3.7538-13.524.754-.644.3779-1.018.4551-1.255.258-.759-.6292-5.147-7.4501-4.918-7.644.647-.552 3.886-2.9734 4.52-3.3759.393-.2514.886-.621 1.096-.8231.209-.202 1.735-1.3438 3.393-2.5381 4.082-2.9439 4.948-3.6371 6.342-5.0729 1.31-1.3488 4.068-5.3704 5.691-8.2962l1.033-1.8596-.783.1873c-5.068 1.2123-10.409 4.2909-20.356 11.7312-8.62 6.448-7.319 5.8746-11.166 4.9201-2.614-.6472-3.805-.7951-6.381-.7951l-3.167-.0016-.302-1.5886c-.608-3.1952-2.433-4.4011-6.692-4.4224-2.385-.0115-2.411-.0197-2.419-.6965-.04-3.4401-4.553-6.4513-8.66-5.7778-1.353.2235-1.646.1972-1.877-.1675-.955-1.5048-2.077-2.7698-2.97-3.3513-1.026-.6687-1.031-.6835-.898-2.1899.387-4.3583 1.523-12.6512 2.366-17.2625.288-1.582.585-3.2445.657-3.6963.073-.4518.321-1.9303.552-3.2856 1.444-8.4621 2.121-19.339018 1.216-19.51643989-.348-.06899751-.552.35319189-.922 1.91055989ZM1069.5 30.642c-2.48 1.6411-1.81 4.6244 1.04 4.6244.84 0 4.01-2.0124 3.37-2.1356-.24-.0476-.56-.5816-.73-1.2321-.57-2.1915-1.69-2.5759-3.68-1.2567Zm3.38-.644c0 .1511.18.4271.41.6144.23.1905.41.2201.41.0673 0-.1511-.19-.4271-.41-.6144-.23-.1905-.41-.2201-.41-.0673Zm2.87.9922c-.26.3844-.41.8576-.34 1.0514.06.1971.32-.0476.59-.5651.58-1.1073.39-1.4654-.25-.4863Zm.14 2.9061c0 .3319.77.6933.99.4682.08-.0821-.11-.2858-.42-.4534-.4-.2119-.57-.2168-.57-.0148Zm-2.07 1.1221c-.58 1.1253-.33 1.3093.39.2907.65-.9002.71-1.1368.32-1.1368-.15 0-.47.3812-.71.8461Zm32.65.5125c-.82.9709-.87 1.3028-.43 2.8684.88 3.1788 5.44 3.3743 5.44.2332 0-3.2396-3.22-5.2323-5.01-3.1016Zm109.27.2924c.15 1.2387-.94 1.9517-2.2 1.4424-1.19-.4813-1.22-.5815-.45-1.5656.81-1.0218 2.53-.9429 2.65.1232Zm39.06.5635c-1.4 1.8613-1.54 4.7034-.35 7.2316l.64 1.3685.08-2.2589c.13-3.8178-.04-6.7815-.37-6.3412Zm-190.29 3.9854c-.92.9989-.87 2.1965.15 3.6158 1.5 2.065 4.11 1.4588 4.11-.9561 0-2.9899-2.5-4.5522-4.26-2.6597Zm46.7 2.2638c0 .2957 1.69 1.6658 2.06 1.6658.3 0-.97-1.3471-1.58-1.6773-.31-.1643-.48-.161-.48.0115Zm3.77.8625c-.25.4419-.36.8033-.25.8033.27 0 1-1.3192.83-1.4867-.06-.0657-.33.2415-.58.6834Zm87.7-.0526c.62.4994.62.5307.15 1.2486-.61.9249-2.04.915-2.38-.0181-.5-1.3586 1.03-2.203 2.23-1.2305Zm-430.521 1.1779c1.15 1.081.57 3.0129-1.01 3.3694-1.113.2513-2.465-.7475-2.465-1.8202 0-1.8663 2.126-2.8141 3.475-1.5492Zm338.911 1.0481c-.1.1594.18.2727.67.2727.46 0 .84-.1232.84-.2727 0-.1511-.3-.2743-.67-.2743-.37 0-.75.1232-.84.2743Zm4.52.1298c0 .1511 1.52.9643 1.81.9643.1 0-.03-.2464-.3-.547-.44-.4781-1.51-.7771-1.51-.4173Zm-1.37.4863c.06.8641.79 2.3869.8 1.6641.02-1.0103-.21-1.7331-.55-1.7331-.14 0-.25.0312-.25.069Zm-314.891 1.1877c1.211 1.0185 1.134 1.9911-.235 2.9275-1.828 1.2518-4.067-1.2206-2.691-2.9718.694-.8822 1.847-.8642 2.926.0443Zm-18.45 1.6477c2.07.7147 2.223.7278 6.453.5422 5.165-.2267 6.269.2234 6.269 2.5545 0 5.16-15.794 4.9465-18.48-.2497-1.674-3.2347.922-4.5177 5.758-2.847Zm472.911 2.295c-1.59 1.9861-1.59 2.1012-.04 3.2445 1.56 1.1434 1.51 1.2091 1.42-2.1044l-.08-2.7664-1.3 1.6263Zm-527.16.3007c.799.7261-.246 2.0288-1.693 2.1126-1.628.0936-1.65.0558-.823-1.5015.608-1.15 1.647-1.403 2.516-.6111Zm386.4.1577c-.39.3975-.17 1.4013.35 1.536.91.2365 1.28-1.2157.41-1.5525-.54-.2053-.53-.2053-.76.0165Zm5.27 1.812c-3.74 2.5118-2.5 7.2809 1.9 7.3088 4.05.0279 4.51-6.972.52-7.7705-1.24-.2464-1.42-.2135-2.42.4617Zm-408.208 4.1677c.643 1.0383.626 1.5574-.049 1.6576-.238.0345-.693.1462-1.012.2464-.32.1019-.581.1446-.581.097 0-.0493-.112-.4781-.248-.9528-.526-1.8301.915-2.6285 1.89-1.0482Zm99.922 1.2305c5.5 2.5858 6.249 3.077 5.789 3.8014-.194.3072-.414.2448-1.161-.3236-1.452-1.1072-4.602-2.5611-6.318-2.916l-1.569-.3236.443-.6768c.243-.3713.518-.6407.61-.598.092.0427 1.086.5093 2.206 1.0366Zm-51.686-.368c.887.8033.416 3.3809-.619 3.3809-.864 0-1.681-1.3602-1.475-2.456.264-1.4161 1.13-1.7972 2.094-.9249Zm-22.93.7984c.572.5717.575 2.6696.003 3.1427-.841.6998-1.887.0082-1.982-1.3077-.143-1.9598.893-2.9209 1.979-1.835Zm-24.74 1.3701c.376.4551.326.5241-.909 1.2305-.407.2349-.478.1593-.478-.5109 0-1.2091.685-1.564 1.387-.7196Zm43.228.713c2.891 3.1032-1.166 6.3609-7.926 6.3609-5.982 0-9.062-2.088-7.786-5.2783.592-1.4785.787-1.518 6.65-1.2978 2.821.1067 5.174.0739 5.653-.0756 1.49-.4682 2.806-.3565 3.409.2908Zm-49.982 3.0523c.792.6358.792.6358.242 1.1631-.303.2908-.6.69-.663.8888-.083.2694-.304.2119-.859-.2251-1.13-.8888-1.002-2.3509.212-2.4412.151-.0099.631.2661 1.068.6144Zm376.326.966.85.1774-.86 1.3192c-1.29 1.9746-2.68 1.5508-2.68-.8182-.01-1.8465.17-2.0913 1.08-1.421.42.3105 1.14.644 1.61.7426Zm8.66.3137c-.1.1742.6.2744 1.92.2744 1.4 0 2.03.0953 1.91.2908-.13.1987.14.23.85.0985.91-.1708 1-.138.84.2892-.19.501.27.5043 1.6.0098.38-.1396.29.0164-.27.5027-1.16.9923-2.44 1.3685-3.94 1.1565-.69-.0985-1.85-.2513-2.57-.34-1.06-.1314-1.25-.2317-.99-.5372.25-.299.19-.3762-.29-.3762-.36 0-.52-.1167-.41-.3006.13-.2136.02-.2119-.39.0065-.48.2563-.54.2382-.41-.1183.18-.4566 1.38-1.2008 1.96-1.2189.2-.0066.29.1117.19.2628Zm-23.2.6391c-.32.7836-.26 1.444.09 1.0908.16-.1643.26-.5898.2-.9446-.08-.5717-.11-.5881-.29-.1462Zm-359.785.2119c.338.3384-.063 1.8876-.488 1.8876-.407 0-1.145-1.3405-.977-1.7775.185-.483 1.028-.5471 1.465-.1101Zm357.785.6637c.29.2218.66.3975.82.3926.16-.0049.05-.1889-.24-.4107-.29-.2201-.66-.3975-.82-.3926-.16.0049-.05.1889.24.4107Zm22.88 1.5147c1.14.1971 3.1.2398 5.47.1182 4.2-.2135 4.85.0132 5.48 1.927 1.6 4.8512-10.85 6.2575-13.95 1.5755-1.33-2.0042-1.04-4.3781.48-4.0758.41.0805 1.54.2842 2.52.4551Zm17.62.3302 1.53.345-.67 1.4341c-.69 1.4917-1.23 1.7677-2.13 1.0908-.52-.3909-1.05-3.711-.54-3.3973.16.1002.97.3368 1.81.5274Zm-38.02.4747c.27.3023.56.4912.63.4173.18-.184-.5-.966-.85-.966-.15 0-.05.2465.22.5487Zm-2.72.4288c-.25.2514-.39.5273-.3.6128.09.087.36-.0493.61-.299.25-.2514.39-.5274.3-.6128-.08-.0871-.36.0477-.61.299Zm155.13 1.8038c4.23 1.2682 5.78 6.9934 2.75 10.1804-3.09 3.256-8.6 2.295-10.31-1.7956-2.01-4.8232 2.55-9.8847 7.56-8.3848Zm11.46 3.0375c.64 1.5426 1.4 3.284 1.7 3.8704.44.8642.47 1.1073.17 1.2962-.52.3302-5.98.304-5.98-.0295 0-.2957 2.77-7.9446 2.88-7.9446.03 0 .59 1.2633 1.23 2.8075Zm-506.086.1939c3.396 1.1943 6.154 5.0302 5.072 7.0525-1.384 2.5825-14.996 2.4494-15.142-.1478-.263-4.659 5.405-8.5442 10.07-6.9047Zm520.306-.1314c1.27.6521 1.31 4.5226.05 4.5226-.14 0-.45.0739-.69.1626-1.11.4271-1.93-2.7073-1.12-4.2828.48-.9216.68-.9659 1.76-.4024Zm-511.99 1.0809c0 2.3722-1.774 2.87-2.331.6539-.161-.6457-.059-.7984.869-1.288 1.433-.7557 1.462-.7425 1.462.6341Zm81.591-.6653c.654.6538.735 2.244.14 2.7369-1.101.9134-2.29-1.2748-1.498-2.755.36-.6719.673-.667 1.358.0181Zm-101.454.5437c.844.3204.881.7935.13 1.748-1.076 1.3651-2.172.6867-2.172-1.3438 0-1.0875.161-1.1204 2.042-.4042Zm319.783.9857c.53 1.3898-.23 4.2204-1.14 4.2204-.83 0-1.64-.9791-2.1-2.5644-.55-1.8925-.58-1.7628.46-1.8909 2-.2497 2.61-.1971 2.78.2349Zm-221.36 1.9303c1.305 1.6576.286 3.7554-2.398 4.9432-4.942 2.1849-10.387 1.8859-11.439-.6292-1.03-2.4658.506-3.3513 7.286-4.2023 1.28-.161 2.697-.4025 3.149-.5388 1.641-.4945 2.791-.3499 3.402.4271Zm-16.577.5011c.578.8805.563 1.8727-.036 2.4017-.693.6128-1.594.1824-1.802-.8624-.375-1.8745.913-2.9521 1.838-1.5393Zm157.03.5864c.309.3927.877 1.3816 1.265 2.1998l.702 1.485-1.996 3.0622-1.998 3.0638-.199-1.784c-.108-.9808-.498-3.1723-.864-4.8693-.734-3.3924-.795-3.1755 1.023-3.6092 1.366-.3253 1.474-.3023 2.067.4517Zm50.227 1.9566c.47 2.9521-1.764 4.8742-2.842 2.4396-.93-2.1028-.849-3.0195.283-3.2232 2.179-.391 2.379-.3318 2.559.7836Zm234.4-.3088c.58.2201 1.25 1.5261 1.25 2.4297 0 4.2614-11.61 6.5054-14.09 2.7237-1.85-2.8322.41-4.4749 6.23-4.5242 1.38-.0115 3.01-.1824 3.61-.3812 1.24-.409 2.35-.4994 3-.248Zm-557.198 4.746c1.498.5701 1.994 2.8963.815 3.8244-2.253 1.7726-4.704-1.3257-2.665-3.3644.81-.8099.882-.828 1.85-.46Zm335.488.1495c2.42.7196 2.32 1.237-.12.6226-1.17-.2924-3.07-.552-4.22-.5766-1.16-.023-1.96-.1347-1.78-.2464.56-.3598 4.69-.2251 6.12.2004Zm-73.694 1.6297c1.339 1.3389.357 4.2055-1.327 3.8704-1.912-.3828-2.63-2.2358-1.423-3.6716.894-1.0613 1.822-1.1287 2.75-.1988ZM710.802 90.172c.222.8822-.077 2.0453-.526 2.0453-1.084 0-1.68-1.5212-1.049-2.6728.423-.7721 1.314-.4189 1.575.6275Zm136.66-.3696c.545.4534.428 2.065-.196 2.6893-1.165 1.1631-3.286.3137-3.286-1.3176 0-1.8777 1.949-2.6449 3.482-1.3717Zm28.073.0049c1.117 1.2929.27 3.2314-1.412 3.2314-1.454 0-2.478-1.9599-1.599-3.0622.897-1.1236 2.126-1.1926 3.011-.1692Zm-193.37-.0903c0 2.1159-4.061 3.5517-6.261 2.2112-1.25-.7639-.974-.8904 1.14-.5224 2.121.3696 3.499-.097 4.181-1.4161.462-.8921.94-1.0317.94-.2727Zm234.851.3022c1.188.5389 1.506 1.1861.731 1.4851-1.161.4452-4.204-.1199-5.229-.9692-1.257-1.0448 2.408-1.4637 4.498-.5159Zm9.806.5783c1.524.2777 6.964 2.8306 6.964 3.2675 0 .1035-1.448.2612-3.217.3483-1.769.0887-4.734.4271-6.589.754-3.871.6802-3.744.7114-3.209-.8082.598-1.6937 1.362-2.6301 2.677-3.2807 1.358-.6719 1.271-.6653 3.374-.2809Zm-219.159 1.8531c2.122 2.1455-1.515 5.1354-6.936 5.7021-3.12.327-5.681-1.1417-5.302-3.0375.303-1.5146.502-1.5853 6.562-2.3492 1.34-.1692 2.819-.4731 3.285-.6768.96-.4173 1.737-.299 2.391.3614Zm-14.372.7458c.58.8838.235 2.1702-.581 2.1702-.82 0-1.426-1.2831-1.023-2.1653.41-.9035 1.015-.9051 1.604-.0049Zm170.73-.3105c3.977.7097 6.98 3.21 5.559 4.6311-.741.7409-3.139.8132-7.716.2316-3.187-.4058-5.017-.5027-6.933-.368-3.464.2448-4.31.1265-4.841-.685-.859-1.311 1.104-2.5053 5.319-3.2347 1.392-.2415 2.808-.5503 3.148-.6867.9-.3614 3.056-.317 5.464.1117Zm-195.452.7311c2.295 1.0448 1.561 4.4207-1.396 6.42-6.154 4.16-15.604 2.246-14.076-2.8535.805-2.686 3-3.6487 7.83-3.4351 1.854.0821 3.663.0296 4.125-.1216 1.133-.3696 2.719-.3745 3.517-.0098Zm205.89 1.3389c1.168 0 1.303.0542 1.007.4107-.89 1.0743-3.451.2973-4.276-1.2962l-.44-.851 1.181.8674c.948.6982 1.444.8691 2.528.8691Zm-30.263-.6851c.695.4731 1.378.6851 2.208.6851 1.038 0 1.156.0558.862.4107-.626.7524-2.66.5306-3.581-.391-1.367-1.3668-1.07-1.7792.511-.7048Zm-194.958.3204c.979 1.3372.048 3.1015-1.634 3.1015-1.41 0-2.129-.6078-2.129-1.8021 0-1.7759 2.727-2.7188 3.763-1.2994Zm413.872 1.2271c1.02.5372 1.51 2.4232.63 2.4232-.21 0-.54.1971-.74.4386-.51.6078-1.35-.4222-1.35-1.6461 0-1.3142.49-1.7249 1.46-1.2157Zm65.09 2.2934c.44.2283.81.5684.81.7524 0 .184.07.5897.15.9002.14.5077-.03.5997-1.65.8987-2.13.393-2.34.31-2.34-.9118 0-1.628 1.49-2.4346 3.03-1.6395Zm-480.398.9429c.603.0017 1.453-.1823 1.89-.409 1.11-.5799 1.201-.3039.218.6785-1.219 1.2189-3.699 1.0099-5.308-.4453-.798-.7228-.286-.9134.948-.3532.636.2875 1.65.5274 2.252.529Zm411.958.5339c1.48 1.4815.98 3.9605-1.19 5.9565-4.44 4.083-11.1 3.935-12.62-.279-.33-.902 1.35-2.256 3.25-2.625 2.34-.455 3.52-.93 6.15-2.474 2.71-1.5871 3.32-1.6676 4.41-.5785Zm41.95.0625c1.05.55 1.44 2.277.66 2.921-.53.443-3.76-.424-3.76-1.01.01-1.6318 1.68-2.6618 3.1-1.911Zm79.32 1.327c.65.654.68 1.053.14 1.825-1.04 1.494-3.62.605-3.13-1.082.4-1.396 1.95-1.7809 2.99-.743Zm-229.215.902c.631.523.262 2.979-.676 4.495-1.551 2.508-3.582 1.418-3.012-1.62.49-2.607 2.305-4.023 3.688-2.875Zm166.375-.082c4.46.592 6.43 1.751 6.43 3.783 0 2.75-1.47 2.808-7.98.319-4.38-1.672-5.77-1.935-8.58-1.613-4.04.465-5.18-1.097-1.78-2.453.87-.346 9.38-.373 11.91-.036Zm88.32.693c1.48.766 1.04 2.333-.75 2.718-1.66.353-2.75-1.763-1.4-2.709.76-.533 1.13-.534 2.15-.009Zm-15.89.542c2.46.625 3.03.671 6.22.51 4.48-.227 5.95.626 5.31 3.068-1.27 4.894-19.21 3.854-19.21-1.113 0-.202-.07-.565-.16-.807-.11-.289.17-.764.84-1.391 1.28-1.211 3.01-1.277 7-.267Zm-356.104.178c1.518.692 1.267 2.586-.364 2.74-1.568.15-2.292-1.368-1.219-2.554.532-.589.665-.603 1.583-.186Zm125.791 1.784c2.486 1.247 2.658 1.291 5.75 1.469 4.271.244 4.692.476 4.692 2.592 0 1.452-.358 1.912-2.011 2.584-1.216.493-1.567.794-1.963 1.671-.956 2.119-2.78 2.605-3.677.981-.535-.973-.468-.97-1.799-.089-2.743 1.815-4.24 1.013-4.24-2.267 0-1.608-.139-2.213-.821-3.565-2.198-4.352-.572-5.702 4.069-3.376Zm82.693-.798c1.12.928 1.05 2.073-.15 2.442-1.21.375-1.62.158-1.87-1.008-.36-1.609.81-2.438 2.02-1.434Zm-225.4 2.85c1.155.923.538 2.42-1 2.42-1.209 0-1.768-.533-1.497-1.425.442-1.449 1.433-1.843 2.497-.995Zm159.611-.383c2.019 1.349.501 6.363-1.927 6.363-1.291 0-1.825-3.127-.796-4.663 1.166-1.741 1.94-2.222 2.723-1.7Zm-146.522 1.254c1.309.957.377 1.726-2.341 1.931-2.093.158-2.813.347-4.411 1.152-3.289 1.656-5.515-.419-2.297-2.142.289-.155 1.929-.386 3.642-.514 1.712-.128 3.325-.355 3.581-.506.651-.378 1.234-.354 1.826.079Zm-151.557.627c.723.918.717 1.413-.028 2.205-1.145 1.219-3.032.479-3.032-1.19 0-1.598 2.063-2.283 3.06-1.015Zm486.888 5.482c1 .909.08 3.734-.94 2.886-.65-.532-.82-1.961-.34-2.7.5-.761.62-.779 1.28-.186Zm-477.616-.005c2.193.588 1.829 5.609-.496 6.81-2.84 1.47-4.951-1.868-3.138-4.963 1.068-1.824 1.983-2.289 3.634-1.847Zm-45.553 1.507c.48 1.138.266 1.877-.54 1.877-1.098 0-1.903-1.669-1.162-2.408.595-.596 1.324-.368 1.702.531Zm56.775-.16c.698.488.817 1.878.228 2.653-.496.654-1.946.616-2.631-.067-1.474-1.475.681-3.793 2.403-2.586Zm445.374.004c.98.979.76 2.633-.38 2.934-.96.249-1.49-1.587-.82-2.834.34-.643.64-.667 1.2-.1Zm15.87 1.181c2.34 1.997 1.09 3.768-3.11 4.425-1.15.179-2.95.731-4.08 1.249-3.36 1.541-5.51.857-5.51-1.751 0-2.231 1.4-3.053 6.39-3.743 1.76-.243 3.48-.55 3.81-.681.76-.298 1.82-.084 2.5.501Zm-520.27 2.232c3.133 3.135-7.226 9.377-10.84 6.534-1.954-1.536-.853-3.097 3.257-4.625 1.204-.447 2.992-1.237 3.971-1.754 2.219-1.173 2.578-1.188 3.612-.155Zm-13.888 3.986c.919 1.403-.087 2.646-1.271 1.575-.488-.442-.684-1.738-.319-2.103.398-.396 1.147-.147 1.59.528Z" fill="#000"/>
  <path fill-rule="evenodd" clip-rule="evenodd" d="M1259.05 1.91762c-.26 1.09904-.82 3.10818-1.24 4.46349-.43 1.35531-.96 3.20346-1.18 4.10699-.65 2.6449-3.27 19.0203-4.01 25.0527-.15 1.2797-.4 3.0671-.54 3.9706-.22 1.3422-.49 3.2922-.55 3.969 0 .0756-.97.1462-2.15.1561l-2.14.018-1.94-5.6315c-1.08-3.0966-2.71-7.5404-3.63-9.8748-.92-2.3344-2.04-5.2241-2.5-6.4217-1.49-3.969-4.56-10.2806-5-10.2806-.47 0 .15 5.8746 1.03 9.7204.43 1.9336 2.22 6.5893 4.3 11.263.28.621.99 2.5316 1.58 4.2434.59 1.7117 1.28 3.6667 1.53 4.3435.25.6785.8 2.226 1.23 3.4384l.77 2.2063-.52 1.0103c-.29.5569-.6 1.012-.69 1.012-.19 0-3.77-3.1016-4.47-3.8721-.92-1.0005-4.44-4.0676-4.68-4.0676-.14 0-.25 1.2781-.25 2.8404v2.8421l1.85 1.7446c1.02.9594 3.08 2.5628 4.59 3.5616 1.5 1.0005 3.75 2.773 5 3.9394l2.26 2.1225-.21 1.2633c-.48 2.9735-.25 5.5313.68 7.1938l.86 1.5525-1.13 1.5968c-2.7 3.8293-3.77 6.4118-3.77 9.0978 0 1.3192-.18 1.8219-1.36 3.877-.85 1.4637-1.53 3.0803-1.8 4.2532-.24 1.0416-.62 2.456-.85 3.146-.22.6883-.36 1.876-.32 2.6399l.09 1.3866 1.89-1.7283 1.9-1.7298.6 1.2797c.33.7031.92 1.5722 1.31 1.9303l.7.6505.15-.6505c.08-.3581.26-1.5754.4-2.704.13-1.1303.55-2.8552.92-3.8343l.67-1.7792 1.63-.0805 1.63-.0805-.2 1.587c-.11.8723-.2 2.8946-.22 4.4963l-.02 2.9094-1.44 1.0875c-.79.5996-3.22 2.3-5.41 3.7801-6.31 4.2823-8.28 5.6433-9.37 6.4953l-1.03.797v6.412c0 5.516.06 6.41.41 6.41.24 0 .42.265.44.616.11 2.175 1.15 5.788 2.17 7.531l.52.889H1234v-.585l1 22.957h638.23l-1-20.639c0-41.5615-.05-46.2303-.43-46.6574-.37-.4009-.39-.7196-.14-2.0749.46-2.4346.9-11.953.7-14.8164l-.19-2.5398-1.27.1692-1.27.1676-1.65-3.3447c-2.9-5.9059-7.9-9.157-15.78-10.2692-1.24-.1741-1.27-.202-1.29-1.1795-.15-6.1966-8.26-8.1335-18.32-4.3715l-1.45.5405-.53-.639c-.91-1.0843-.97-1.6609-.24-2.1143 3.47-2.1603 6.03-6.7848 4.98-8.9894-1.73-3.6503-8.3-1.7233-8.3 2.4346 0 .9019-.13 1.0744-1.44 1.8827-.79.4895-2.08 1.3011-2.86 1.8054-1.21.7705-1.54.8723-2.14.644-4.06-1.5426-8.2 2.7862-5.96 6.2344 1.59 2.4609 3.98 2.4511 8.98-.0345 1.91-.9528 1.92-.9528 2.39-.3959.74.8608.6 1.1187-1.09 2.0026-3.54 1.8432-7.6 6.6172-8.55 10.0276-.3 1.1105-.8 2.3278-1.09 2.704-2.98 3.79-5.92 9.1488-5.71 10.4154.08.478.28.4058 1.98-.6916 2.18-1.403 2.04-1.4424 2.76.754.85 2.6039 1.58 2.0404 2.84-2.1767.8-2.7024 1.71-3.7521 3.02-3.5074 1.66.3122 1.66.3122.8 3.284-1.15 3.9789-1.36 5.1814-1.35 8.0349.01 2.5053-.01 2.5562-.6 2.4133-1.6-.3861-7.65-.7738-9.49-.6062-4.55.4107-6.46 2.5003-5.23 5.7301.25.6637.21.6949-1.3.9955-2.07.4107-4.73 1.1188-5.32 1.4145-.34.1725-.77.018-1.56-.552-.6-.4354-1.46-.9446-1.92-1.1319-.8-.3335-.82-.3762-.66-1.8038.2-1.8334-.31-4.0166-1.17-5.0417l-.66-.7837 2.23-6.2508c1.22-3.4384 2.76-7.731 3.41-9.5381.64-1.8071 1.74-4.8873 2.43-6.8439 1.34-3.7866 1.19-3.5698 4.58-6.4726 1.02-.8723 2.42-2.6712 4.46-5.7498 1.64-2.4642 3.57-5.1781 4.3-6.0324 1.17-1.3734 1.33-1.7003 1.33-2.8272 0-.6999.36-2.9587.8-5.0171.43-2.0601.87-4.7937.96-6.0735.57-8.2517.61-7.8213-.63-6.9539-.62.4353-1.08 1.3175-1.3 2.5118-.52 2.7205-3.21 7.5487-5.41 9.7024-1.49 1.4571-2.09 1.0103-2.09-1.559 0-2.1718 2.99-14.7951 4.34-18.28109.89-2.3147.72-2.63505-.62-1.1746-1.23 1.34873-2.78 4.23019-5.22 9.73189-3.79 8.5623-5.77 12.0467-6.85 12.0467-1.7 0-1.51-4.2467.42-8.8991.55-1.329 1.59-4.1661 1.76-4.7904l.18-.685-.5.5832c-.27.3203-.99 1.1812-1.59 1.9122-1.89 2.295-5.59 6.6764-6.1 7.2283-1.69 1.8071-2.08 10.1098-.8 16.9718.71 3.8441 1.3 8.0234 1.5 10.7751.09 1.3011-.04 2.0206-.72 3.8326-.45 1.2272-2.2 5.9272-3.87 10.4449-1.68 4.5177-3.32 8.9319-3.65 9.8075-.41 1.104-.91 1.8498-1.63 2.4265-1.58 1.2715-1.89 2.0797-1.68 4.4059l.17 1.978-1.37 2.0535c-.82 1.2238-1.57 2.7467-1.85 3.7653-.61 2.2194-.2 2.433-5.84-3.0934-5.4-5.2948-7.32-6.9047-9.69-8.099-1.45-.7344-1.56-.8576-1.41-1.5459.36-1.6576.78-2.295 1.95-2.985.67-.3926 1.52-1.1877 1.89-1.7692.85-1.3504 1.23-1.3307 2.01.1067.36.6391.84 1.3849 1.07 1.656.39.455.34.57-.69 1.5064-3.15 2.8634-2.84 4.8331.55 3.6043 5.46-1.9746 9.76-5.3128 9.76-7.5667 0-1.0416-1.64-.8543-4.05.46l-2 1.0891-.66-.7097c-1.33-1.4341-1.39-2.3541-.26-3.9936 3.03-4.3797-1.76-12.6692-7.04-12.1912l-1.58.1429-.94-1.2731c-.51-.7015-1.66-2.7534-2.56-4.5604-1.47-2.9538-3.87-7.2284-9.9-17.6601-6.04-10.4219-1.02 2.5102 5.99 15.4702 2.95 5.4327 4.93 9.2999 4.93 9.589 0 .0723-.41.1298-.91.1298-2.26 0-5.66 1.9566-5.66 3.2593 0 .1347-1.52.2875-3.37.3417-3.67.1035-5.05.6637-5.67 2.2999-.25.6687-.8.7163-1.81.1594-3.42-1.8843-9.17-2.9324-11.39-2.0798-.3.1133-.52-.5323-.97-2.8059-1.44-7.3482-6.48-13.075-12.47-14.1905l-1.05-.1955.18-1.5951c.49-4.1892-2.04-5.942-8.95-6.2115-10.24-.3992-17.28 2.4232-21.42 8.6001-.7 1.0497-1.94 2.341-3.19 3.3234-2.27 1.7955-3.06 2.7287-4.48 5.3111-1.38 2.5102-1.3 2.5726 1.69 1.3619l1.44-.5815v2.4313c0 1.835.1 2.4658.39 2.5776.64.248 1.28-.7147 1.09-1.6494-.19-.966 1.88-4.3912 3.03-5.0073.65-.3482 2.46-.1971 2.72.23.42.6867-1.26 2.5053-2.32 2.5053-2.1 0-3.07 2.5365-1.45 3.8096.68.5372.7.6243.41 1.7841-1.25 4.9629 1.47 12.5066 5.19 14.4074.98.4994 1.42 1.0809.82 1.0809-.13 0-1.46 1.0908-2.95 2.4248-2.47 2.2178-4.35 3.5369-4.63 3.2527-.06-.0608-.38-1.5787-.7-3.3743-.34-1.8547-.76-3.4006-.99-3.5846-.5-.4189-6.69-.8739-12.29-.9051-.45-.0033-.79-.3861-1.37-1.5443-1.56-3.0966-4.3-3.872-7.86-2.2194-.88.4124-1.65.7475-1.7.7475-.19 0-.74-1.2108-1.52-3.3694-.43-1.2157-1.04-2.6252-1.34-3.1328-.78-1.329 1.09-3.0803 3.29-3.0803.94 0 4.25 4.2828 4.92 6.3659.58 1.8038 1.36.6144 1.42-2.1702l.03-1.3848 2.13.9216c2.54 1.1007 2.83 1.1351 2.57.3055-.8-2.5825-3.92-6.9112-6.08-8.4193-2.12-1.4851-2.76-2.2063-3.23-3.6306-.58-1.7528-3.21-4.567-5.82-6.2262-2.32-1.4719-2.41-.7705.94-7.3121 4.31-8.4407 4.5-11.7641.73-12.8943-4.22-1.2649-6.13 1.058-9.64 11.7-1.57 4.7575-1.15 4.5604-7.49 3.5534-11.22-1.7808-18.42 1.8744-16.49 8.3766.15.4846-.1.6243-2.1 1.2157-3.44 1.0119-8.89 4.061-10.74 6.0044l-.79.8378-.98-.8509c-.55-.4682-2.02-1.789-3.29-2.9341-3.15-2.8634-4.17-3.0589-6.23-1.1992-3.31 2.9899-2.19 5.6873 4.43 10.6223l2.18 1.6362-.8 3.0113c-1.03 3.9164-1.21 12.2865-.33 15.6066 1.44 5.4048 4.94 9.428 9.38 10.803l1.51.4666-2.14 1.4719c-4 2.7496-6.55 5.6446-8.88 10.0936-1.61 3.085-3.4 1.352-4.25-4.13-.67-4.326-.38-5.7057 1.42-6.9016 2.78-1.8465 3.06-4.2894 1.03-8.8284-.62-1.3767-1.33-3.4088-1.58-4.5144-.63-2.7862-2.27-5.947-4.23-8.1795-.33-.3762-.82-.9315-1.09-1.2321-3.07-3.4581-8.22-6.31-11.33-6.2689-3.87.0509-6.11 4.8643-4.75 10.1935.4 1.5508.15 3.3415-.45 3.33-.04-.0017-.67-.3089-1.41-.6851-.82-.4156-1.81-.6834-2.53-.6834-1.07 0-1.22-.0805-1.55-.8904-.21-.4895-1.24-1.9138-2.3-3.1673-1.54-1.8202-2.05-2.6564-2.53-4.1743-2.01-6.3725-11.82-11.8167-21.37-11.861-5.14-.023-7.01 1.306-7.45 5.3062-.07.5881-.25.7064-1.36.8641-.71.1002-1.4.2513-1.54.3368-.54.3318-1.12-.6062-1.51-2.4314-.69-3.2412-3.19-14.2085-3.36-14.7161-.15-.4764-1.32-.6818-1.57-.2744-.38.6013 2.21 12.5493 3.5 16.1881.23.6588.42 1.3044.42 1.4342 0 .3204-1.82 1.4457-3.06 1.8942l-1.01.363-2-1.7808c-1.1-.9791-2.36-2.0798-2.8-2.4445-.44-.3647-1.12-.9709-1.52-1.3487-.4-.3762-1.57-1.4227-2.61-2.3262-1.03-.9035-2.5-2.226-3.27-2.9373-1.69-1.5738-2.31-1.8285-2.81-1.1467-.5.6867-.97.1988 6.56 6.7979 3.73 3.2692 6.77 6.0291 6.77 6.1326 0 .1035-.55.7425-1.22 1.421-.67.6768-1.22 1.4013-1.23 1.6083-.02.6932-2.19.0936-5.58-1.541l-3.25-1.5639-.53.662-.54.6637.69.3631c.38.1988 1.95.8526 3.48 1.4506 3.65 1.421 4.35 1.7364 4.35 1.9648 0 .1035-.38 1.2123-.85 2.4658-3.47 9.295-2.69 16.8157 2.08 20.052 1.23.8378 1.33.7803-3.14 1.8155-2.66.619-3.26.68-3.84.391-5.99-2.9951-13.3-1.5839-15.34 2.963l-.49 1.086-1.13-1.79c-1.27-2.019-2.07-2.663-3.31-2.663-.47 0-.81-.094-.76-.206.06-.113.69-1.3764 1.39-2.8073 2.45-4.9201 3.04-9.7549 1.59-13.0142l-.59-1.3356 1.72-1.5048c4.46-3.8983 5.48-5.2274 4.02-5.2274-.52 0-2.14-.7113-2.43-1.0645-.14-.1643-1.22-.7935-2.68-1.5574-.44-.225-1.55-.3877-2.67-.3877l-1.92-.0016-.53-.9906c-.81-1.4999-3.22-3.4844-5.49-4.5194-2.32-1.0596-2.25-.9479-1.32-2.0042l.71-.805 2.72 1.4457c3.08 1.6362 3.43 1.7562 7.18 2.4921 3.45.6785 4.49 1.3488 5.67 3.6273.7 1.3504.99 1.2962 1.22-.225.97-6.4447-6.98-13.0701-13.94-11.6245-1.97.4091-1.98.4009-1.4-1.5458 1.08-3.5994.97-5.3128-.61-9.9094-1.84-5.3851-4.72-8.3355-8.51-8.7265l-1.51-.1561.19.7639c.1.4205.48 1.1483.83 1.6165 1.62 2.1718 1.75 2.9275 1.4 8.1368-.27 3.9608-.13 4.4191 2.36 7.6735 2.82 3.693 2.85 3.9017.94 5.4245-2.39 1.8892-3.63 1.6034-4.29-.984-.95-3.7686-3.62-7.0805-7.42-9.2046-2.35-1.3159-2.33-1.3225-2.2.708.08 1.2502-.06 2.3295-.51 3.9017-.4 1.3733-.63 2.9422-.64 4.2647l-.02 2.0913-1.47.1741c-2.07.2431-4.72 1.1302-7.47 2.5053l-2.37 1.1811-.86-2.4264c-.96-2.6794-2.39-4.5916-4.09-5.4672-1.6-.8247-3.3-2.4412-3.54-3.3678-.4-1.5606-.79-1.076-1.96 2.4544-1.18 3.532-1.52 6.0866-1.05 7.7704l.2.7097-2.58.3171c-1.42.1741-3.01.317-3.55.317-1.05 0-1.22.3368-.61 1.2404.2.2957.81 1.623 1.36 2.9488 2.65 6.3921 6.01 8.1992 9.59 5.1518.46-.3959.46-.3286-.05 1.0727-.3.8231-.87 2.6663-1.28 4.0972-.41 1.4308-.88 2.8781-1.06 3.2149l-.31.6144-1.68-1.1614c-.92-.6391-2.43-1.6937-3.36-2.3426-2.28-1.5985-4.12-2.4166-6.36-2.8158-2.1-.3762-2.05-.2678-1.43-2.8995.77-3.2824.27-5.4903-2.15-9.5053l-1.14-1.8908.67-.4354c3.36-2.1767 5.73-6.3905 5.08-9.0403-.59-2.3821-2.81-2.8601-4.58-.984-1.09 1.1549-2.15.9594-5.31-.9792-1.23-.7507-2.65-1.4801-3.16-1.6214l-.94-.2579.09-4.4536c.05-2.4478.13-4.4914.17-4.5391.16-.1544 2.17.7705 2.67 1.2288 1.08.9726 7.71-2.0173 8-3.6108.14-.736.45-1.1352 1.28-1.6593 2.53-1.5951 1.88-4.3813-1.17-5.0335-.79-.1725-2.13-.7885-3.07-1.4177-3.13-2.0946-8.38.1281-8.38 3.5501 0 1.2238-.34.8821-.92-.9167-.88-2.7484-.78-3.1854.78-3.5518 1.7-.3975 2.95-1.0382 3.61-1.8497.44-.5438.79-.6325 2.82-.6999 3.23-.1068 8.5-1.4736 8.5-2.203 0-.2513-.29-.3811-2.8-1.2896l-1.29-.4649.81-1.6017c1.25-2.4708 1.22-2.4856-2.34-1.4112-1.05.3187-2.65.713-3.56.8773l-1.64.299-.82-.9151c-.45-.5043-1.31-1.6198-1.92-2.4789-3.52-5.0254-16.64-9.9636-24.02-9.0404-5.69.7114-8.11 3.9395-6.13 8.1894l.64 1.3832-2.12.3335c-1.16.184-3.02.6423-4.13 1.0185-2.58.8756-2.5.9249-4.13-2.5414-2.69-5.7087-2.85-6.6106-1.42-8.3158 1.81-2.1701.59-4.52592-2.22-4.29265-1.38.115-5.61 1.94015-5.61 2.42145 0 .1233-.23.2957-.51.3845-3.42 1.0858-2.91 4.8035.66 4.8035 2 0 2.05.0509 3.09 3.233.31.9496 1.12 2.617 1.8 3.7045.68 1.0876 1.41 2.4708 1.62 3.0737l.39 1.0974-1.33 1.7693c-.74.9742-1.34 1.8629-1.34 1.9763-.01.7294-.54-.0017-.69-.9594-.23-1.3603-.55-1.7693-2.67-3.3842-1.66-1.2617-2.52-1.4571-3.95-.9035-1.31.506-1.82.529-2.46.1084-1.37-.8953-4.08.3039-4.12 1.8235 0 .2037-.09.8231-.2 1.3767-.18.8723-.11 1.0875.51 1.6231.58.5076.71.8575.71 1.9549 0 2.9669 4.93 6.673 7.55 5.6758 1.06-.4008 1.06-.3071.19 2.4117l-.78 2.451-1.92-.9889c-3.1-1.6034-4.8-2.2704-6.59-2.5792l-1.68-.2924-.12-1.467c-.75-9.0371-24.96-1.9763-27.02 7.8805-.24 1.1565-.74 2.0732-2.25 4.0922-2 2.7024-2.89 4.3698-3.14 5.9206l-.14.9085 1.41-.9512c2.16-1.4522 2.26-1.2847.63 1.0957-.2.2974-.37 1.0054-.37 1.5755 0 1.0333 0 1.0333-1.16 1.0415-.98.0049-3.45.708-5.17 1.472-.37.1642-.49-.0181-.65-.9824-.54-3.2462-2.59-4.6541-4.3-2.9488-.97.9741-.95 2.7467.07 5.4228.54 1.4227.54 1.426-.02 2.5119-.69 1.3602-.84 1.3553-2.36-.0756-2.45-2.3065-5.49-1.3865-4.46 1.3504.34.9068 2.22 2.9044 3.45 3.6716l.87.5389-.5 1.4292c-.28.7853-.59 2.0141-.69 2.7303-.27 1.8104-2.13 2.0404-2.45.3023-.76-4.0364-5.82-3.7538-13.53.754-.64.3779-1.01.4551-1.25.258-.76-.6292-5.15-7.4501-4.92-7.644.65-.552 3.89-2.9734 4.52-3.3759.39-.2514.89-.621 1.1-.8231.21-.202 1.73-1.3438 3.39-2.5381 4.08-2.9439 4.95-3.6371 6.34-5.0729 1.31-1.3488 4.07-5.3704 5.69-8.2962l1.04-1.8596-.79.1873c-5.07 1.2123-10.41 4.2909-20.35 11.7312-8.62 6.448-7.32 5.8746-11.17 4.9201-2.61-.6472-3.8-.7951-6.38-.7951l-3.17-.0016-.3-1.5886c-.61-3.1952-2.43-4.4011-6.69-4.4224-2.39-.0115-2.41-.0197-2.42-.6965-.04-3.4401-4.55-6.4513-8.66-5.7778-1.35.2235-1.65.1972-1.88-.1675-.95-1.5048-2.07-2.7698-2.97-3.3513-1.02-.6687-1.03-.6835-.89-2.1899.38-4.3583 1.52-12.6512 2.36-17.2625.29-1.582.59-3.2445.66-3.6963.07-.4518.32-1.9303.55-3.2856 1.44-8.4621 2.12-19.339018 1.22-19.51643989-.35-.06899751-.56.35319189-.93 1.91055989ZM1686.5 30.642c-2.48 1.6411-1.81 4.6244 1.04 4.6244.84 0 4.01-2.0124 3.37-2.1356-.24-.0476-.56-.5816-.73-1.2321-.57-2.1915-1.69-2.5759-3.68-1.2567Zm3.38-.644c0 .1511.18.4271.41.6144.23.1905.41.2201.41.0673 0-.1511-.19-.4271-.41-.6144-.23-.1905-.41-.2201-.41-.0673Zm2.87.9922c-.26.3844-.41.8576-.34 1.0514.06.1971.32-.0476.59-.5651.58-1.1073.39-1.4654-.25-.4863Zm.14 2.9061c0 .3319.77.6933.99.4682.08-.0821-.11-.2858-.42-.4534-.4-.2119-.57-.2168-.57-.0148Zm-2.07 1.1221c-.58 1.1253-.33 1.3093.39.2907.65-.9002.71-1.1368.32-1.1368-.15 0-.47.3812-.71.8461Zm32.65.5125c-.82.9709-.87 1.3028-.43 2.8684.88 3.1788 5.44 3.3743 5.44.2332 0-3.2396-3.22-5.2323-5.01-3.1016Zm109.27.2924c.15 1.2387-.94 1.9517-2.2 1.4424-1.19-.4813-1.22-.5815-.45-1.5656.81-1.0218 2.53-.9429 2.65.1232Zm39.06.5635c-1.4 1.8613-1.54 4.7034-.35 7.2316l.64 1.3685.08-2.2589c.13-3.8178-.04-6.7815-.37-6.3412Zm-190.29 3.9854c-.92.9989-.87 2.1965.15 3.6158 1.5 2.065 4.11 1.4588 4.11-.9561 0-2.9899-2.5-4.5522-4.26-2.6597Zm46.7 2.2638c0 .2957 1.69 1.6658 2.06 1.6658.3 0-.97-1.3471-1.58-1.6773-.31-.1643-.48-.161-.48.0115Zm3.77.8625c-.25.4419-.36.8033-.25.8033.27 0 1-1.3192.83-1.4867-.06-.0657-.33.2415-.58.6834Zm87.7-.0526c.62.4994.62.5307.15 1.2486-.61.9249-2.04.915-2.38-.0181-.5-1.3586 1.03-2.203 2.23-1.2305Zm-430.52 1.1779c1.15 1.081.57 3.0129-1.01 3.3694-1.11.2513-2.47-.7475-2.47-1.8202 0-1.8663 2.13-2.8141 3.48-1.5492Zm338.91 1.0481c-.1.1594.18.2727.67.2727.46 0 .84-.1232.84-.2727 0-.1511-.3-.2743-.67-.2743-.37 0-.75.1232-.84.2743Zm4.52.1298c0 .1511 1.52.9643 1.81.9643.1 0-.03-.2464-.3-.547-.44-.4781-1.51-.7771-1.51-.4173Zm-1.37.4863c.06.8641.79 2.3869.8 1.6641.02-1.0103-.21-1.7331-.55-1.7331-.14 0-.25.0312-.25.069Zm-314.89 1.1877c1.21 1.0185 1.13 1.9911-.24 2.9275-1.82 1.2518-4.06-1.2206-2.69-2.9718.7-.8822 1.85-.8642 2.93.0443Zm-18.45 1.6477c2.07.7147 2.22.7278 6.45.5422 5.17-.2267 6.27.2234 6.27 2.5545 0 5.16-15.79 4.9465-18.48-.2497-1.67-3.2347.92-4.5177 5.76-2.847Zm472.91 2.295c-1.59 1.9861-1.59 2.1012-.04 3.2445 1.56 1.1434 1.51 1.2091 1.42-2.1044l-.08-2.7664-1.3 1.6263Zm-527.16.3007c.8.7261-.25 2.0288-1.69 2.1126-1.63.0936-1.65.0558-.83-1.5015.61-1.15 1.65-1.403 2.52-.6111Zm386.4.1577c-.39.3975-.17 1.4013.35 1.536.91.2365 1.28-1.2157.41-1.5525-.54-.2053-.53-.2053-.76.0165Zm5.27 1.812c-3.74 2.5118-2.5 7.2809 1.9 7.3088 4.05.0279 4.51-6.972.52-7.7705-1.24-.2464-1.42-.2135-2.42.4617Zm-408.21 4.1677c.64 1.0383.63 1.5574-.05 1.6576-.24.0345-.69.1462-1.01.2464-.32.1019-.58.1446-.58.097 0-.0493-.11-.4781-.25-.9528-.52-1.8301.92-2.6285 1.89-1.0482Zm99.92 1.2305c5.5 2.5858 6.25 3.077 5.79 3.8014-.19.3072-.41.2448-1.16-.3236-1.45-1.1072-4.6-2.5611-6.32-2.916l-1.56-.3236.44-.6768c.24-.3713.52-.6407.61-.598.09.0427 1.08.5093 2.2 1.0366Zm-51.68-.368c.89.8033.41 3.3809-.62 3.3809-.87 0-1.68-1.3602-1.48-2.456.27-1.4161 1.13-1.7972 2.1-.9249Zm-22.93.7984c.57.5717.57 2.6696 0 3.1427-.84.6998-1.89.0082-1.98-1.3077-.14-1.9598.89-2.9209 1.98-1.835Zm-24.74 1.3701c.37.4551.32.5241-.91 1.2305-.41.2349-.48.1593-.48-.5109 0-1.2091.69-1.564 1.39-.7196Zm43.23.713c2.89 3.1032-1.17 6.3609-7.93 6.3609-5.98 0-9.06-2.088-7.79-5.2783.6-1.4785.79-1.518 6.65-1.2978 2.82.1067 5.18.0739 5.66-.0756 1.49-.4682 2.8-.3565 3.41.2908Zm-49.99 3.0523c.8.6358.8.6358.25 1.1631-.31.2908-.6.69-.67.8888-.08.2694-.3.2119-.86-.2251-1.13-.8888-1-2.3509.22-2.4412.15-.0099.63.2661 1.06.6144Zm376.33.966.85.1774-.86 1.3192c-1.29 1.9746-2.68 1.5508-2.68-.8182-.01-1.8465.17-2.0913 1.08-1.421.42.3105 1.14.644 1.61.7426Zm8.66.3137c-.1.1742.6.2744 1.92.2744 1.4 0 2.03.0953 1.91.2908-.13.1987.14.23.85.0985.91-.1708 1-.138.84.2892-.19.501.27.5043 1.6.0098.38-.1396.29.0164-.27.5027-1.16.9923-2.44 1.3685-3.94 1.1565-.69-.0985-1.85-.2513-2.57-.34-1.06-.1314-1.25-.2317-.99-.5372.25-.299.19-.3762-.29-.3762-.36 0-.52-.1167-.41-.3006.13-.2136.02-.2119-.39.0065-.48.2563-.54.2382-.41-.1183.18-.4566 1.38-1.2008 1.96-1.2189.2-.0066.29.1117.19.2628Zm-23.2.6391c-.32.7836-.26 1.444.09 1.0908.16-.1643.26-.5898.2-.9446-.08-.5717-.11-.5881-.29-.1462Zm-359.79.2119c.34.3384-.06 1.8876-.48 1.8876-.41 0-1.15-1.3405-.98-1.7775.19-.483 1.03-.5471 1.46-.1101Zm357.79.6637c.29.2218.66.3975.82.3926.16-.0049.05-.1889-.24-.4107-.29-.2201-.66-.3975-.82-.3926-.16.0049-.05.1889.24.4107Zm22.88 1.5147c1.14.1971 3.1.2398 5.47.1182 4.2-.2135 4.85.0132 5.48 1.927 1.6 4.8512-10.85 6.2575-13.95 1.5755-1.33-2.0042-1.04-4.3781.48-4.0758.41.0805 1.54.2842 2.52.4551Zm17.62.3302 1.53.345-.67 1.4341c-.69 1.4917-1.23 1.7677-2.13 1.0908-.52-.3909-1.05-3.711-.54-3.3973.16.1002.97.3368 1.81.5274Zm-38.02.4747c.27.3023.56.4912.63.4173.18-.184-.5-.966-.85-.966-.15 0-.05.2465.22.5487Zm-2.72.4288c-.25.2514-.39.5273-.3.6128.09.087.36-.0493.61-.299.25-.2514.39-.5274.3-.6128-.08-.0871-.36.0477-.61.299Zm155.13 1.8038c4.23 1.2682 5.78 6.9934 2.75 10.1804-3.09 3.256-8.6 2.295-10.31-1.7956-2.01-4.8232 2.55-9.8847 7.56-8.3848Zm11.46 3.0375c.64 1.5426 1.4 3.284 1.7 3.8704.44.8642.47 1.1073.17 1.2962-.52.3302-5.98.304-5.98-.0295 0-.2957 2.77-7.9446 2.88-7.9446.03 0 .59 1.2633 1.23 2.8075Zm-506.09.1939c3.4 1.1943 6.16 5.0302 5.08 7.0525-1.39 2.5825-15 2.4494-15.15-.1478-.26-4.659 5.41-8.5442 10.07-6.9047Zm520.31-.1314c1.27.6521 1.31 4.5226.05 4.5226-.14 0-.45.0739-.69.1626-1.11.4271-1.93-2.7073-1.12-4.2828.48-.9216.68-.9659 1.76-.4024Zm-511.99 1.0809c0 2.3722-1.77 2.87-2.33.6539-.16-.6457-.06-.7984.87-1.288 1.43-.7557 1.46-.7425 1.46.6341Zm81.59-.6653c.65.6538.74 2.244.14 2.7369-1.1.9134-2.29-1.2748-1.5-2.755.36-.6719.68-.667 1.36.0181Zm-101.45.5437c.84.3204.88.7935.13 1.748-1.08 1.3651-2.17.6867-2.17-1.3438 0-1.0875.16-1.1204 2.04-.4042Zm319.78.9857c.53 1.3898-.23 4.2204-1.14 4.2204-.83 0-1.64-.9791-2.1-2.5644-.55-1.8925-.58-1.7628.46-1.8909 2-.2497 2.61-.1971 2.78.2349Zm-221.36 1.9303c1.31 1.6576.29 3.7554-2.4 4.9432-4.94 2.1849-10.39 1.8859-11.44-.6292-1.03-2.4658.51-3.3513 7.29-4.2023 1.28-.161 2.7-.4025 3.15-.5388 1.64-.4945 2.79-.3499 3.4.4271Zm-16.58.5011c.58.8805.57 1.8727-.03 2.4017-.7.6128-1.6.1824-1.81-.8624-.37-1.8745.92-2.9521 1.84-1.5393Zm157.03.5864c.31.3927.88 1.3816 1.27 2.1998l.7 1.485-2 3.0622-1.99 3.0638-.2-1.784c-.11-.9808-.5-3.1723-.87-4.8693-.73-3.3924-.79-3.1755 1.03-3.6092 1.36-.3253 1.47-.3023 2.06.4517Zm50.23 1.9566c.47 2.9521-1.76 4.8742-2.84 2.4396-.93-2.1028-.85-3.0195.28-3.2232 2.18-.391 2.38-.3318 2.56.7836Zm234.4-.3088c.58.2201 1.25 1.5261 1.25 2.4297 0 4.2614-11.61 6.5054-14.09 2.7237-1.85-2.8322.41-4.4749 6.23-4.5242 1.38-.0115 3.01-.1824 3.61-.3812 1.24-.409 2.35-.4994 3-.248Zm-557.2 4.746c1.5.5701 2 2.8963.82 3.8244-2.26 1.7726-4.71-1.3257-2.67-3.3644.81-.8099.88-.828 1.85-.46Zm335.49.1495c2.42.7196 2.32 1.237-.12.6226-1.17-.2924-3.07-.552-4.22-.5766-1.16-.023-1.96-.1347-1.78-.2464.56-.3598 4.69-.2251 6.12.2004Zm-73.69 1.6297c1.34 1.3389.35 4.2055-1.33 3.8704-1.91-.3828-2.63-2.2358-1.42-3.6716.89-1.0613 1.82-1.1287 2.75-.1988ZM1327.8 90.172c.22.8822-.08 2.0453-.52 2.0453-1.09 0-1.68-1.5212-1.05-2.6728.42-.7721 1.31-.4189 1.57.6275Zm136.66-.3696c.55.4534.43 2.065-.19 2.6893-1.17 1.1631-3.29.3137-3.29-1.3176 0-1.8777 1.95-2.6449 3.48-1.3717Zm28.08.0049c1.11 1.2929.26 3.2314-1.42 3.2314-1.45 0-2.47-1.9599-1.6-3.0622.9-1.1236 2.13-1.1926 3.02-.1692Zm-193.38-.0903c0 2.1159-4.06 3.5517-6.26 2.2112-1.25-.7639-.97-.8904 1.14-.5224 2.13.3696 3.5-.097 4.19-1.4161.46-.8921.93-1.0317.93-.2727Zm234.86.3022c1.18.5389 1.5 1.1861.73 1.4851-1.16.4452-4.21-.1199-5.23-.9692-1.26-1.0448 2.41-1.4637 4.5-.5159Zm9.8.5783c1.53.2777 6.97 2.8306 6.97 3.2675 0 .1035-1.45.2612-3.22.3483-1.77.0887-4.73.4271-6.59.754-3.87.6802-3.74.7114-3.21-.8082.6-1.6937 1.36-2.6301 2.68-3.2807 1.36-.6719 1.27-.6653 3.37-.2809Zm-219.16 1.8531c2.13 2.1455-1.51 5.1354-6.93 5.7021-3.12.327-5.68-1.1417-5.3-3.0375.3-1.5146.5-1.5853 6.56-2.3492 1.34-.1692 2.82-.4731 3.28-.6768.96-.4173 1.74-.299 2.39.3614Zm-14.37.7458c.58.8838.24 2.1702-.58 2.1702s-1.43-1.2831-1.02-2.1653c.41-.9035 1.01-.9051 1.6-.0049Zm170.73-.3105c3.98.7097 6.98 3.21 5.56 4.6311-.74.7409-3.14.8132-7.72.2316-3.18-.4058-5.01-.5027-6.93-.368-3.46.2448-4.31.1265-4.84-.685-.86-1.311 1.1-2.5053 5.32-3.2347 1.39-.2415 2.81-.5503 3.15-.6867.9-.3614 3.05-.317 5.46.1117Zm-195.45.7311c2.29 1.0448 1.56 4.4207-1.4 6.42-6.15 4.16-15.6 2.246-14.07-2.8535.8-2.686 3-3.6487 7.83-3.4351 1.85.0821 3.66.0296 4.12-.1216 1.14-.3696 2.72-.3745 3.52-.0098Zm205.89 1.3389c1.17 0 1.3.0542 1.01.4107-.89 1.0743-3.45.2973-4.28-1.2962l-.44-.851 1.18.8674c.95.6982 1.45.8691 2.53.8691Zm-30.26-.6851c.69.4731 1.37.6851 2.2.6851 1.04 0 1.16.0558.87.4107-.63.7524-2.66.5306-3.59-.391-1.36-1.3668-1.07-1.7792.52-.7048Zm-194.96.3204c.98 1.3372.05 3.1015-1.64 3.1015-1.41 0-2.13-.6078-2.13-1.8021 0-1.7759 2.73-2.7188 3.77-1.2994Zm413.87 1.2271c1.02.5372 1.51 2.4232.63 2.4232-.21 0-.54.1971-.74.4386-.51.6078-1.35-.4222-1.35-1.6461 0-1.3142.49-1.7249 1.46-1.2157Zm65.09 2.2934c.44.2283.81.5684.81.7524 0 .184.07.5897.15.9002.14.5077-.03.5997-1.65.8987-2.13.393-2.34.31-2.34-.9118 0-1.628 1.49-2.4346 3.03-1.6395Zm-480.4.9429c.61.0017 1.45-.1823 1.89-.409 1.11-.5799 1.2-.3039.22.6785-1.22 1.2189-3.7 1.0099-5.31-.4453-.8-.7228-.28-.9134.95-.3532.64.2875 1.65.5274 2.25.529Zm411.96.5339c1.48 1.4815.98 3.9605-1.19 5.9565-4.44 4.083-11.1 3.935-12.62-.279-.33-.902 1.35-2.256 3.25-2.625 2.34-.455 3.52-.93 6.15-2.474 2.71-1.5871 3.32-1.6676 4.41-.5785Zm41.95.0625c1.05.55 1.44 2.277.66 2.921-.53.443-3.76-.424-3.76-1.01.01-1.6318 1.68-2.6618 3.1-1.911Zm79.32 1.327c.65.654.68 1.053.14 1.825-1.04 1.494-3.62.605-3.13-1.082.4-1.396 1.95-1.7809 2.99-.743Zm-229.21.902c.63.523.26 2.979-.68 4.495-1.55 2.508-3.58 1.418-3.01-1.62.49-2.607 2.3-4.023 3.69-2.875Zm166.37-.082c4.46.592 6.43 1.751 6.43 3.783 0 2.75-1.47 2.808-7.98.319-4.38-1.672-5.77-1.935-8.58-1.613-4.04.465-5.18-1.097-1.78-2.453.87-.346 9.38-.373 11.91-.036Zm88.32.693c1.48.766 1.04 2.333-.75 2.718-1.66.353-2.75-1.763-1.4-2.709.76-.533 1.13-.534 2.15-.009Zm-15.89.542c2.46.625 3.03.671 6.22.51 4.48-.227 5.95.626 5.31 3.068-1.27 4.894-19.21 3.854-19.21-1.113 0-.202-.07-.565-.16-.807-.11-.289.17-.764.84-1.391 1.28-1.211 3.01-1.277 7-.267Zm-356.1.178c1.51.692 1.26 2.586-.37 2.74-1.57.15-2.29-1.368-1.22-2.554.53-.589.67-.603 1.59-.186Zm125.79 1.784c2.48 1.247 2.66 1.291 5.75 1.469 4.27.244 4.69.476 4.69 2.592 0 1.452-.36 1.912-2.01 2.584-1.22.493-1.57.794-1.97 1.671-.95 2.119-2.78 2.605-3.67.981-.54-.973-.47-.97-1.8-.089-2.74 1.815-4.24 1.013-4.24-2.267 0-1.608-.14-2.213-.82-3.565-2.2-4.352-.57-5.702 4.07-3.376Zm82.69-.798c1.12.928 1.05 2.073-.15 2.442-1.21.375-1.62.158-1.87-1.008-.36-1.609.81-2.438 2.02-1.434Zm-225.4 2.85c1.16.923.54 2.42-1 2.42-1.21 0-1.77-.533-1.5-1.425.44-1.449 1.44-1.843 2.5-.995Zm159.61-.383c2.02 1.349.5 6.363-1.93 6.363-1.29 0-1.82-3.127-.79-4.663 1.16-1.741 1.94-2.222 2.72-1.7Zm-146.52 1.254c1.31.957.38 1.726-2.34 1.931-2.09.158-2.82.347-4.41 1.152-3.29 1.656-5.52-.419-2.3-2.142.29-.155 1.93-.386 3.64-.514 1.71-.128 3.33-.355 3.58-.506.65-.378 1.24-.354 1.83.079Zm-151.56.627c.73.918.72 1.413-.03 2.205-1.14 1.219-3.03.479-3.03-1.19 0-1.598 2.07-2.283 3.06-1.015Zm486.89 5.482c1 .909.08 3.734-.94 2.886-.65-.532-.82-1.961-.34-2.7.5-.761.62-.779 1.28-.186Zm-477.62-.005c2.2.588 1.83 5.609-.49 6.81-2.84 1.47-4.95-1.868-3.14-4.963 1.07-1.824 1.98-2.289 3.63-1.847Zm-45.55 1.507c.48 1.138.27 1.877-.54 1.877-1.1 0-1.9-1.669-1.16-2.408.59-.596 1.32-.368 1.7.531Zm56.78-.16c.69.488.81 1.878.22 2.653-.49.654-1.94.616-2.63-.067-1.47-1.475.68-3.793 2.41-2.586Zm445.37.004c.98.979.76 2.633-.38 2.934-.96.249-1.49-1.587-.82-2.834.34-.643.64-.667 1.2-.1Zm15.87 1.181c2.34 1.997 1.09 3.768-3.11 4.425-1.15.179-2.95.731-4.08 1.249-3.36 1.541-5.51.857-5.51-1.751 0-2.231 1.4-3.053 6.39-3.743 1.76-.243 3.48-.55 3.81-.681.76-.298 1.82-.084 2.5.501Zm-520.27 2.232c3.13 3.135-7.23 9.377-10.84 6.534-1.95-1.536-.85-3.097 3.26-4.625 1.2-.447 2.99-1.237 3.97-1.754 2.22-1.173 2.58-1.188 3.61-.155Zm-13.89 3.986c.92 1.403-.08 2.646-1.27 1.575-.49-.442-.68-1.738-.32-2.103.4-.396 1.15-.147 1.59.528ZM25.0543 1.91762c-.2628 1.09904-.823 3.10818-1.2469 4.46349-.4238 1.35531-.9528 3.20346-1.1746 4.10699-.6505 2.6449-3.2708 19.0203-4.0084 25.0527-.1561 1.2797-.4041 3.0671-.5487 3.9706-.2168 1.3422-.483 3.2922-.5438 3.969-.0065.0756-.9741.1462-2.152.1561l-2.1373.018-1.9467-5.6315c-1.0711-3.0966-2.70242-7.5404-3.62403-9.8748-.92161-2.3344-2.04529-5.2241-2.49706-6.4217C3.67822 17.7575.607835 11.4459.172494 11.4459c-.468198 0 .149495 5.8746 1.023466 9.7204.43862 1.9336 2.21942 6.5893 4.30741 11.263.27764.621.98733 2.5316 1.57709 4.2434.58977 1.7117 1.2781 3.6667 1.52945 4.3435.25134.6785.80497 2.226 1.22716 3.4384l.77043 2.2063-.5191 1.0103c-.28582.5569-.59796 1.012-.69324 1.012-.18563 0-3.76201-3.1016-4.46677-3.8721-.91503-1.0005-4.440479-4.0676-4.675399-4.0676C.113353 40.7435 0 42.0216 0 43.5839v2.8421l1.85143 1.7446c1.01854.9594 3.08354 2.5628 4.5867 3.5616 1.50316 1.0005 3.75377 2.773 4.99907 3.9394l2.2637 2.1225-.207 1.2633c-.4879 2.9735-.2497 5.5313.6736 7.1938l.8608 1.5525-1.1269 1.5968c-2.7008 3.8293-3.7703 6.4118-3.7703 9.0978 0 1.3192-.17739 1.8219-1.36349 3.877-.84439 1.4637-1.5278 3.0803-1.79886 4.2532-.23985 1.0416-.61934 2.456-.8444 3.146-.22342.6883-.36799 1.876-.32199 2.6399l.08379 1.3866 1.89579-1.7283 1.89578-1.7298.60128 1.2797c.3302.7031.9183 1.5722 1.3077 1.9303l.7064.6505.1495-.6505c.0805-.3581.2595-1.5754.3942-2.704.1364-1.1303.5504-2.8552.92-3.8343l.6703-1.7792 1.6329-.0805 1.6313-.0805-.1971 1.587c-.1101.8723-.2087 2.8946-.2218 4.4963l-.023 2.9094-1.4375 1.0875c-.7902.5996-3.2248 2.3-5.4081 3.7801-6.31488 4.2823-8.27966 5.6433-9.37705 6.4953L0 106.227v6.412c0 5.516.0574979 6.41.4107 6.41.23492 0 .423841.265.441912.616.106782 2.175 1.148318 5.788 2.166848 7.531l.52077.889H0v-.585l1 22.957h638.227l-1-20.639c0-41.5615-.043-46.2303-.429-46.6574-.364-.4009-.384-.7196-.133-2.0749.452-2.4346.896-11.953.692-14.8164l-.183-2.5398-1.273.1692-1.275.1676-1.642-3.3447c-2.903-5.9059-7.901-9.157-15.781-10.2692-1.239-.1741-1.268-.202-1.293-1.1795-.148-6.1966-8.265-8.1335-18.322-4.3715l-1.444.5405-.534-.639c-.905-1.0843-.972-1.6609-.241-2.1143 3.466-2.1603 6.03-6.7848 4.984-8.9894-1.732-3.6503-8.303-1.7233-8.303 2.4346 0 .9019-.131 1.0744-1.437 1.8827-.79.4895-2.08 1.3011-2.865 1.8054-1.206.7705-1.541.8723-2.141.644-4.058-1.5426-8.198 2.7862-5.96 6.2344 1.593 2.4609 3.979 2.4511 8.981-.0345 1.914-.9528 1.917-.9528 2.395-.3959.74.8608.598 1.1187-1.095 2.0026-3.536 1.8432-7.603 6.6172-8.546 10.0276-.306 1.1105-.799 2.3278-1.094 2.704-2.977 3.79-5.914 9.1488-5.711 10.4154.078.478.284.4058 1.986-.6916 2.177-1.403 2.036-1.4424 2.755.754.853 2.6039 1.587 2.0404 2.842-2.1767.804-2.7024 1.709-3.7521 3.02-3.5074 1.661.3122 1.661.3122.8 3.284-1.153 3.9789-1.355 5.1814-1.349 8.0349.005 2.5053-.008 2.5562-.599 2.4133-1.597-.3861-7.656-.7738-9.494-.6062-4.549.4107-6.455 2.5003-5.226 5.7301.251.6637.212.6949-1.301.9955-2.068.4107-4.731 1.1188-5.319 1.4145-.342.1725-.776.018-1.564-.552-.6-.4354-1.461-.9446-1.914-1.1319-.805-.3335-.822-.3762-.665-1.8038.198-1.8334-.308-4.0166-1.17-5.0417l-.659-.7837 2.228-6.2508c1.225-3.4384 2.758-7.731 3.409-9.5381.648-1.8071 1.746-4.8873 2.436-6.8439 1.335-3.7866 1.183-3.5698 4.58-6.4726 1.02-.8723 2.415-2.6712 4.457-5.7498 1.636-2.4642 3.57-5.1781 4.299-6.0324 1.173-1.3734 1.326-1.7003 1.326-2.8272 0-.6999.36-2.9587.8-5.0171.438-2.0601.872-4.7937.961-6.0735.578-8.2517.616-7.8213-.621-6.9539-.623.4353-1.081 1.3175-1.308 2.5118-.517 2.7205-3.21 7.5487-5.41 9.7024-1.49 1.4571-2.088 1.0103-2.088-1.559 0-2.1718 2.995-14.7951 4.337-18.28109.891-2.3147.725-2.63505-.612-1.1746-1.237 1.34873-2.782 4.23019-5.22 9.73189-3.794 8.5623-5.776 12.0467-6.852 12.0467-1.706 0-1.509-4.2467.414-8.8991.551-1.329 1.592-4.1661 1.76-4.7904l.184-.685-.496.5832c-.273.3203-.989 1.1812-1.592 1.9122-1.889 2.295-5.591 6.6764-6.105 7.2283-1.684 1.8071-2.075 10.1098-.798 16.9718.714 3.8441 1.296 8.0234 1.498 10.7751.095 1.3011-.039 2.0206-.713 3.8326-.457 1.2272-2.203 5.9272-3.879 10.4449-1.677 4.5177-3.318 8.9319-3.645 9.8075-.412 1.104-.915 1.8498-1.631 2.4265-1.584 1.2715-1.893 2.0797-1.683 4.4059l.178 1.978-1.375 2.0535c-.82 1.2238-1.567 2.7467-1.847 3.7653-.611 2.2194-.207 2.433-5.843-3.0934-5.398-5.2948-7.322-6.9047-9.686-8.099-1.454-.7344-1.566-.8576-1.416-1.5459.361-1.6576.78-2.295 1.957-2.985.668-.3926 1.516-1.1877 1.882-1.7692.853-1.3504 1.231-1.3307 2.019.1067.352.6391.831 1.3849 1.065 1.656.392.455.34.57-.689 1.5064-3.146 2.8634-2.842 4.8331.554 3.6043 5.456-1.9746 9.758-5.3128 9.758-7.5667 0-1.0416-1.641-.8543-4.053.46l-1.999 1.0891-.657-.7097c-1.331-1.4341-1.39-2.3541-.26-3.9936 3.023-4.3797-1.767-12.6692-7.044-12.1912l-1.585.1429-.933-1.2731c-.513-.7015-1.666-2.7534-2.563-4.5604-1.467-2.9538-3.864-7.2284-9.901-17.6601-6.034-10.4219-1.02 2.5102 5.996 15.4702 2.941 5.4327 4.928 9.2999 4.928 9.589 0 .0723-.409.1298-.908.1298-2.262 0-5.663 1.9566-5.663 3.2593 0 .1347-1.518.2875-3.374.3417-3.667.1035-5.043.6637-5.666 2.2999-.255.6687-.798.7163-1.812.1594-3.422-1.8843-9.165-2.9324-11.39-2.0798-.295.1133-.517-.5323-.964-2.8059-1.446-7.3482-6.481-13.075-12.479-14.1905l-1.049-.1955.185-1.5951c.487-4.1892-2.042-5.942-8.953-6.2115-10.244-.3992-17.274 2.4232-21.419 8.6001-.703 1.0497-1.943 2.341-3.188 3.3234-2.276 1.7955-3.063 2.7287-4.484 5.3111-1.378 2.5102-1.301 2.5726 1.694 1.3619l1.438-.5815v2.4313c0 1.835.095 2.4658.386 2.5776.644.248 1.283-.7147 1.095-1.6494-.194-.966 1.881-4.3912 3.03-5.0073.652-.3482 2.456-.1971 2.718.23.426.6867-1.256 2.5053-2.316 2.5053-2.106 0-3.077 2.5365-1.457 3.8096.683.5372.703.6243.411 1.7841-1.25 4.9629 1.472 12.5066 5.198 14.4074.977.4994 1.417 1.0809.818 1.0809-.137 0-1.464 1.0908-2.949 2.4248-2.473 2.2178-4.349 3.5369-4.633 3.2527-.061-.0608-.378-1.5787-.703-3.3743-.335-1.8547-.761-3.4006-.984-3.5846-.508-.4189-6.691-.8739-12.298-.9051-.447-.0033-.787-.3861-1.368-1.5443-1.558-3.0966-4.301-3.872-7.858-2.2194-.884.4124-1.649.7475-1.702.7475-.189 0-.733-1.2108-1.513-3.3694-.439-1.2157-1.043-2.6252-1.342-3.1328-.785-1.329 1.086-3.0803 3.29-3.0803.937 0 4.244 4.2828 4.914 6.3659.58 1.8038 1.359.6144 1.421-2.1702l.031-1.3848 2.129.9216c2.538 1.1007 2.833 1.1351 2.576.3055-.801-2.5825-3.926-6.9112-6.08-8.4193-2.121-1.4851-2.763-2.2063-3.236-3.6306-.582-1.7528-3.213-4.567-5.822-6.2262-2.317-1.4719-2.407-.7705.941-7.3121 4.317-8.4407 4.506-11.7641.736-12.8943-4.224-1.2649-6.137 1.058-9.645 11.7-1.569 4.7575-1.151 4.5604-7.493 3.5534-11.217-1.7808-18.41 1.8744-16.48 8.3766.143.4846-.1.6243-2.108 1.2157-3.438 1.0119-8.887 4.061-10.732 6.0044l-.795.8378-.984-.8509c-.542-.4682-2.019-1.789-3.281-2.9341-3.158-2.8634-4.176-3.0589-6.236-1.1992-3.31 2.9899-2.185 5.6873 4.426 10.6223l2.189 1.6362-.8 3.0113c-1.038 3.9164-1.217 12.2865-.331 15.6066 1.44 5.4048 4.933 9.428 9.377 10.803l1.509.4666-2.139 1.4719c-4 2.7496-6.546 5.6446-8.877 10.0936-1.617 3.085-3.401 1.352-4.25-4.13-.67-4.326-.388-5.7057 1.414-6.9016 2.78-1.8465 3.066-4.2894 1.032-8.8284-.616-1.3767-1.327-3.4088-1.579-4.5144-.634-2.7862-2.268-5.947-4.233-8.1795-.33-.3762-.82-.9315-1.088-1.2321-3.067-3.4581-8.22-6.31-11.328-6.2689-3.873.0509-6.115 4.8643-4.75 10.1935.396 1.5508.153 3.3415-.453 3.33-.035-.0017-.669-.3089-1.41-.6851-.818-.4156-1.81-.6834-2.528-.6834-1.074 0-1.216-.0805-1.554-.8904-.204-.4895-1.239-1.9138-2.298-3.1673-1.541-1.8202-2.047-2.6564-2.527-4.1743-2.011-6.3725-11.82-11.8167-21.37-11.861-5.146-.023-7.014 1.306-7.453 5.3062-.066.5881-.251.7064-1.362.8641-.708.1002-1.398.2513-1.534.3368-.539.3318-1.122-.6062-1.513-2.4314-.693-3.2412-3.194-14.2085-3.355-14.7161-.151-.4764-1.327-.6818-1.578-.2744-.372.6013 2.214 12.5493 3.504 16.1881.233.6588.423 1.3044.423 1.4342 0 .3204-1.821 1.4457-3.063 1.8942l-1.009.363-2.003-1.7808c-1.1-.9791-2.36-2.0798-2.797-2.4445-.437-.3647-1.122-.9709-1.522-1.3487-.397-.3762-1.572-1.4227-2.607-2.3262-1.035-.9035-2.507-2.226-3.27-2.9373-1.689-1.5738-2.31-1.8285-2.81-1.1467-.501.6867-.971.1988 6.555 6.7979 3.728 3.2692 6.775 6.0291 6.775 6.1326-.002.1035-.55.7425-1.221 1.421-.668.6768-1.222 1.4013-1.228 1.6083-.023.6932-2.197.0936-5.586-1.541l-3.244-1.5639-.538.662-.537.6637.693.3631c.382.1988 1.949.8526 3.483 1.4506 3.645 1.421 4.347 1.7364 4.347 1.9648 0 .1035-.383 1.2123-.851 2.4658-3.47 9.295-2.693 16.8157 2.075 20.052 1.235.8378 1.332.7803-3.13 1.8155-2.669.619-3.266.68-3.844.391-5.996-2.9951-13.305-1.5839-15.34 2.963l-.487 1.086-1.13-1.79c-1.275-2.019-2.078-2.663-3.318-2.663-.47 0-.808-.094-.753-.206.056-.113.684-1.3764 1.392-2.8073 2.441-4.9201 3.031-9.7549 1.588-13.0142l-.589-1.3356 1.72-1.5048c4.457-3.8983 5.478-5.2274 4.018-5.2274-.519 0-2.144-.7113-2.435-1.0645-.134-.1643-1.217-.7935-2.679-1.5574-.434-.225-1.544-.3877-2.665-.3877l-1.923-.0016-.533-.9906c-.808-1.4999-3.216-3.4844-5.483-4.5194-2.325-1.0596-2.251-.9479-1.324-2.0042l.708-.805 2.723 1.4457c3.084 1.6362 3.432 1.7562 7.174 2.4921 3.45.6785 4.5 1.3488 5.675 3.6273.696 1.3504.992 1.2962 1.22-.225.966-6.4447-6.978-13.0701-13.94-11.6245-1.97.4091-1.977.4009-1.397-1.5458 1.073-3.5994.966-5.3128-.609-9.9094-1.845-5.3851-4.725-8.3355-8.517-8.7265l-1.509-.1561.192.7639c.105.4205.478 1.1483.829 1.6165 1.624 2.1718 1.753 2.9275 1.399 8.1368-.272 3.9608-.132 4.4191 2.357 7.6735 2.822 3.693 2.858 3.9017.94 5.4245-2.382 1.8892-3.626 1.6034-4.282-.984-.952-3.7686-3.624-7.0805-7.423-9.2046-2.35-1.3159-2.327-1.3225-2.198.708.08 1.2502-.063 2.3295-.516 3.9017-.396 1.3733-.631 2.9422-.641 4.2647l-.015 2.0913-1.47.1741c-2.075.2431-4.721 1.1302-7.473 2.5053l-2.364 1.1811-.867-2.4264c-.96-2.6794-2.389-4.5916-4.089-5.4672-1.599-.8247-3.296-2.4412-3.536-3.3678-.404-1.5606-.793-1.076-1.966 2.4544-1.173 3.532-1.516 6.0866-1.042 7.7704l.199.7097-2.579.3171c-1.418.1741-3.018.317-3.553.317-1.055 0-1.219.3368-.61 1.2404.2.2957.815 1.623 1.364 2.9488 2.648 6.3921 6.007 8.1992 9.584 5.1518.466-.3959.463-.3286-.045 1.0727-.299.8231-.877 2.6663-1.284 4.0972-.409 1.4308-.884 2.8781-1.058 3.2149l-.314.6144-1.674-1.1614c-.92-.6391-2.431-1.6937-3.358-2.3426-2.28-1.5985-4.128-2.4166-6.363-2.8158-2.104-.3762-2.051-.2678-1.434-2.8995.771-3.2824.271-5.4903-2.15-9.5053l-1.14-1.8908.673-.4354c3.363-2.1767 5.729-6.3905 5.077-9.0403-.587-2.3821-2.806-2.8601-4.576-.984-1.089 1.1549-2.157.9594-5.317-.9792-1.224-.7507-2.645-1.4801-3.159-1.6214l-.934-.2579.087-4.4536c.05-2.4478.129-4.4914.176-4.5391.155-.1544 2.164.7705 2.67 1.2288 1.074.9726 7.701-2.0173 8-3.6108.138-.736.444-1.1352 1.275-1.6593 2.527-1.5951 1.881-4.3813-1.165-5.0335-.798-.1725-2.135-.7885-3.078-1.4177-3.131-2.0946-8.375.1281-8.375 3.5501 0 1.2238-.344.8821-.92-.9167-.881-2.7484-.784-3.1854.782-3.5518 1.697-.3975 2.947-1.0382 3.604-1.8497.44-.5438.794-.6325 2.826-.6999 3.223-.1068 8.493-1.4736 8.493-2.203 0-.2513-.283-.3811-2.794-1.2896l-1.288-.4649.808-1.6017c1.247-2.4708 1.222-2.4856-2.34-1.4112-1.054.3187-2.656.713-3.559.8773l-1.643.299-.822-.9151c-.451-.5043-1.314-1.6198-1.915-2.4789-3.524-5.0254-16.64-9.9636-24.02-9.0404-5.695.7114-8.113 3.9395-6.134 8.1894l.644 1.3832-2.121.3335c-1.166.184-3.024.6423-4.131 1.0185-2.578.8756-2.497.9249-4.134-2.5414-2.692-5.7087-2.847-6.6106-1.422-8.3158 1.812-2.1701.598-4.52592-2.213-4.29265-1.38.115-5.617 1.94015-5.617 2.42145 0 .1233-.228.2957-.507.3845-3.422 1.0858-2.91 4.8035.662 4.8035 1.999 0 2.048.0509 3.093 3.233.311.9496 1.12 2.617 1.799 3.7045.678 1.0876 1.406 2.4708 1.62 3.0737l.386 1.0974-1.334 1.7693c-.735.9742-1.336 1.8629-1.336 1.9763-.006.7294-.535-.0017-.691-.9594-.224-1.3603-.546-1.7693-2.668-3.3842-1.656-1.2617-2.515-1.4571-3.95-.9035-1.309.506-1.817.529-2.459.1084-1.367-.8953-4.076.3039-4.117 1.8235-.005.2037-.098.8231-.208 1.3767-.173.8723-.105 1.0875.512 1.6231.583.5076.71.8575.71 1.9549 0 2.9669 4.93 6.673 7.55 5.6758 1.057-.4008 1.065-.3071.194 2.4117l-.785 2.451-1.914-.9889c-3.1-1.6034-4.802-2.2704-6.589-2.5792l-1.681-.2924-.123-1.467c-.749-9.0371-24.964-1.9763-27.019 7.8805-.242 1.1565-.744 2.0732-2.246 4.0922-2.009 2.7024-2.895 4.3698-3.141 5.9206l-.145.9085 1.413-.9512c2.159-1.4522 2.256-1.2847.629 1.0957-.202.2974-.368 1.0054-.368 1.5755 0 1.0333-.001 1.0333-1.163 1.0415-.982.0049-3.4495.708-5.1744 1.472-.3697.1642-.4896-.0181-.6489-.9824-.5372-3.2462-2.5874-4.6541-4.2943-2.9488-.9725.9741-.9512 2.7467.0657 5.4228.5405 1.4227.5405 1.426-.0148 2.5119-.6932 1.3602-.8395 1.3553-2.3607-.0756-2.4543-2.3065-5.4935-1.3865-4.4635 1.3504.3401.9068 2.2178 2.9044 3.4515 3.6716l.8658.5389-.4994 1.4292c-.2744.7853-.5865 2.0141-.6916 2.7303-.2694 1.8104-2.1209 2.0404-2.4478.3023-.7573-4.0364-5.8188-3.7538-13.5235.754-.644.3779-1.0185.4551-1.2551.258-.759-.6292-5.1469-7.4501-4.9185-7.644.6472-.552 3.8868-2.9734 4.5209-3.3759.3927-.2514.8855-.621 1.0958-.8231.2086-.202 1.7348-1.3438 3.3924-2.5381 4.0823-2.9439 4.9481-3.6371 6.3428-5.0729 1.3093-1.3488 4.0676-5.3704 5.6907-8.2962l1.0333-1.8596-.7836.1873c-5.0681 1.2123-10.4088 4.2909-20.3559 11.7312-8.6198 6.448-7.3187 5.8746-11.1661 4.9201-2.6137-.6472-3.8048-.7951-6.3807-.7951l-3.1673-.0016-.3023-1.5886c-.6078-3.1952-2.4329-4.4011-6.6911-4.4224-2.3853-.0115-2.4116-.0197-2.4198-.6965-.0395-3.4401-4.5522-6.4513-8.6592-5.7778-1.3537.2235-1.6461.1972-1.8777-.1675-.9545-1.5048-2.0765-2.7698-2.9702-3.3513-1.0251-.6687-1.03-.6835-.897-2.1899.3861-4.3583 1.5229-12.6512 2.3657-17.2625.2874-1.582.5848-3.2445.6571-3.6963.0723-.4518.3203-1.9303.552-3.2856C26.2043 11.0614 26.8811.184482 25.9759.00706011c-.3482-.06899751-.552.35319189-.9216 1.91055989ZM452.496 30.642c-2.478 1.6411-1.804 4.6244 1.044 4.6244.835 0 4.009-2.0124 3.368-2.1356-.241-.0476-.557-.5816-.726-1.2321-.57-2.1915-1.697-2.5759-3.686-1.2567Zm3.38-.644c0 .1511.184.4271.411.6144.229.1905.411.2201.411.0673 0-.1511-.186-.4271-.411-.6144-.228-.1905-.411-.2201-.411-.0673Zm2.872.9922c-.253.3844-.406.8576-.34 1.0514.067.1971.325-.0476.593-.5651.575-1.1073.388-1.4654-.253-.4863Zm.14 2.9061c0 .3319.769.6933.994.4682.082-.0821-.109-.2858-.423-.4534-.395-.2119-.571-.2168-.571-.0148Zm-2.067 1.1221c-.581 1.1253-.332 1.3093.394.2907.641-.9002.707-1.1368.311-1.1368-.146 0-.463.3812-.705.8461Zm32.646.5125c-.817.9709-.866 1.3028-.432 2.8684.882 3.1788 5.447 3.3743 5.447.2332 0-3.2396-3.221-5.2323-5.015-3.1016Zm109.277.2924c.145 1.2387-.945 1.9517-2.203 1.4424-1.193-.4813-1.222-.5815-.448-1.5656.805-1.0218 2.526-.9429 2.651.1232Zm39.056.5635c-1.4 1.8613-1.538 4.7034-.352 7.2316l.643 1.3685.079-2.2589c.134-3.8178-.038-6.7815-.37-6.3412Zm-190.287 3.9854c-.927.9989-.876 2.1965.151 3.6158 1.497 2.065 4.105 1.4588 4.105-.9561 0-2.9899-2.502-4.5522-4.256-2.6597Zm46.695 2.2638c0 .2957 1.694 1.6658 2.058 1.6658.303 0-.967-1.3471-1.578-1.6773-.308-.1643-.48-.161-.48.0115Zm3.773.8625c-.254.4419-.364.8033-.246.8033.261 0 .994-1.3192.826-1.4867-.065-.0657-.327.2415-.58.6834Zm87.701-.0526c.616.4994.621.5307.15 1.2486-.607.9249-2.041.915-2.384-.0181-.498-1.3586 1.033-2.203 2.234-1.2305Zm-430.523 1.1779c1.15 1.081.57 3.0129-1.01 3.3694-1.113.2513-2.465-.7475-2.465-1.8202 0-1.8663 2.126-2.8141 3.475-1.5492Zm338.913 1.0481c-.099.1594.179.2727.668.2727.46 0 .838-.1232.838-.2727 0-.1511-.301-.2743-.669-.2743-.368 0-.744.1232-.837.2743Zm4.517.1298c0 .1511 1.525.9643 1.809.9643.105 0-.03-.2464-.302-.547-.434-.4781-1.507-.7771-1.507-.4173Zm-1.365.4863c.053.8641.784 2.3869.8 1.6641.021-1.0103-.212-1.7331-.558-1.7331-.135 0-.244.0312-.242.069Zm-314.895 1.1877c1.211 1.0185 1.134 1.9911-.235 2.9275-1.828 1.2518-4.067-1.2206-2.691-2.9718.694-.8822 1.847-.8642 2.926.0443Zm-18.45 1.6477c2.07.7147 2.223.7278 6.453.5422 5.165-.2267 6.269.2234 6.269 2.5545 0 5.16-15.794 4.9465-18.48-.2497-1.674-3.2347.922-4.5177 5.758-2.847Zm472.911 2.295c-1.589 1.9861-1.589 2.1012-.037 3.2445 1.555 1.1434 1.51 1.2091 1.415-2.1044l-.077-2.7664-1.301 1.6263Zm-527.16.3007c.799.7261-.246 2.0288-1.693 2.1126-1.628.0936-1.65.0558-.823-1.5015.608-1.15 1.647-1.403 2.516-.6111Zm386.403.1577c-.396.3975-.168 1.4013.35 1.536.903.2365 1.281-1.2157.404-1.5525-.535-.2053-.531-.2053-.754.0165Zm5.267 1.812c-3.742 2.5118-2.501 7.2809 1.902 7.3088 4.045.0279 4.51-6.972.516-7.7705-1.237-.2464-1.414-.2135-2.418.4617ZM93.0924 57.8565c.6424 1.0383.626 1.5574-.0492 1.6576-.2382.0345-.6933.1462-1.012.2464-.3204.1019-.5816.1446-.5816.097 0-.0493-.1117-.4781-.248-.9528-.5257-1.8301.915-2.6285 1.8908-1.0482Zm99.9216 1.2305c5.5 2.5858 6.249 3.077 5.789 3.8014-.194.3072-.414.2448-1.161-.3236-1.452-1.1072-4.602-2.5611-6.318-2.916l-1.569-.3236.443-.6768c.243-.3713.518-.6407.61-.598.092.0427 1.086.5093 2.206 1.0366Zm-51.686-.368c.887.8033.416 3.3809-.619 3.3809-.864 0-1.681-1.3602-1.475-2.456.264-1.4161 1.13-1.7972 2.094-.9249Zm-22.93.7984c.572.5717.575 2.6696.003 3.1427-.841.6998-1.887.0082-1.982-1.3077-.143-1.9598.893-2.9209 1.979-1.835Zm-24.7404 1.3701c.3762.4551.3269.5241-.9085 1.2305-.4074.2349-.4781.1593-.4781-.5109 0-1.2091.6851-1.564 1.3866-.7196Zm43.2284.713c2.891 3.1032-1.166 6.3609-7.926 6.3609-5.982 0-9.062-2.088-7.786-5.2783.592-1.4785.787-1.518 6.65-1.2978 2.821.1067 5.174.0739 5.653-.0756 1.49-.4682 2.806-.3565 3.409.2908Zm-49.982 3.0523c.7919.6358.7918.6358.2415 1.1631-.3023.2908-.5996.69-.662.8888-.0838.2694-.304.2119-.8592-.2251-1.1303-.8888-1.0021-2.3509.2119-2.4412.1511-.0099.6308.2661 1.0678.6144Zm376.327.966.846.1774-.859 1.3192c-1.286 1.9746-2.674 1.5508-2.683-.8182-.006-1.8465.18-2.0913 1.085-1.421.42.3105 1.145.644 1.611.7426Zm8.663.3137c-.107.1742.596.2744 1.917.2744 1.403 0 2.027.0953 1.906.2908-.124.1987.147.23.849.0985.91-.1708 1.007-.138.844.2892-.192.501.27.5043 1.602.0098.378-.1396.292.0164-.273.5027-1.155.9923-2.438 1.3685-3.934 1.1565-.698-.0985-1.855-.2513-2.573-.34-1.066-.1314-1.248-.2317-.994-.5372.248-.299.189-.3762-.286-.3762-.364 0-.524-.1167-.41-.3006.131-.2136.019-.2119-.388.0065-.481.2563-.549.2382-.412-.1183.175-.4566 1.375-1.2008 1.963-1.2189.197-.0066.282.1117.189.2628Zm-23.208.6391c-.317.7836-.26 1.444.095 1.0908.163-.1643.255-.5898.202-.9446-.082-.5717-.118-.5881-.297-.1462Zm-359.7811.2119c.3385.3384-.0624 1.8876-.4879 1.8876-.4074 0-1.145-1.3405-.9774-1.7775.1856-.483 1.0284-.5471 1.4653-.1101Zm357.7831.6637c.293.2218.662.3975.822.3926.159-.0049.051-.1889-.242-.4107-.292-.2201-.662-.3975-.821-.3926-.16.0049-.051.1889.241.4107Zm22.878 1.5147c1.143.1971 3.103.2398 5.477.1182 4.199-.2135 4.846.0132 5.479 1.927 1.6 4.8512-10.848 6.2575-13.949 1.5755-1.328-2.0042-1.047-4.3781.479-4.0758.405.0805 1.535.2842 2.514.4551Zm17.627.3302 1.523.345-.664 1.4341c-.691 1.4917-1.232 1.7677-2.135 1.0908-.521-.3909-1.047-3.711-.538-3.3973.16.1002.976.3368 1.814.5274Zm-38.022.4747c.272.3023.555.4912.629.4173.182-.184-.5-.966-.845-.966-.156 0-.059.2465.216.5487Zm-2.721.4288c-.251.2514-.386.5273-.301.6128.088.087.364-.0493.613-.299.252-.2514.386-.5274.301-.6128-.086-.0871-.362.0477-.613.299Zm155.126 1.8038c4.232 1.2682 5.78 6.9934 2.754 10.1804-3.089 3.256-8.599 2.295-10.307-1.7956-2.014-4.8232 2.546-9.8847 7.553-8.3848Zm11.46 3.0375c.639 1.5426 1.405 3.284 1.701 3.8704.44.8642.471 1.1073.174 1.2962-.523.3302-5.98.304-5.98-.0295 0-.2957 2.77-7.9446 2.877-7.9446.037 0 .589 1.2633 1.228 2.8075Zm-506.082.1939c3.396 1.1943 6.154 5.0302 5.072 7.0525-1.384 2.5825-14.9958 2.4494-15.142-.1478-.2628-4.659 5.405-8.5442 10.07-6.9047Zm520.309-.1314c1.263.6521 1.304 4.5226.048 4.5226-.145 0-.455.0739-.687.1626-1.116.4271-1.937-2.7073-1.122-4.2828.476-.9216.673-.9659 1.761-.4024ZM115.27 76.1803c0 2.3722-1.774 2.87-2.331.6539-.161-.6457-.059-.7984.869-1.288 1.433-.7557 1.462-.7425 1.462.6341Zm81.591-.6653c.654.6538.735 2.244.14 2.7369-1.101.9134-2.29-1.2748-1.498-2.755.36-.6719.673-.667 1.358.0181Zm-101.4539.5437c.8444.3204.8806.7935.1298 1.748-1.076 1.3651-2.1718.6867-2.1718-1.3438 0-1.0875.161-1.1204 2.042-.4042Zm319.7809.9857c.534 1.3898-.229 4.2204-1.137 4.2204-.835 0-1.636-.9791-2.096-2.5644-.551-1.8925-.584-1.7628.456-1.8909 2.001-.2497 2.611-.1971 2.777.2349ZM193.83 78.9747c1.305 1.6576.286 3.7554-2.398 4.9432-4.942 2.1849-10.387 1.8859-11.439-.6292-1.03-2.4658.506-3.3513 7.286-4.2023 1.28-.161 2.697-.4025 3.149-.5388 1.641-.4945 2.791-.3499 3.402.4271Zm-16.577.5011c.578.8805.563 1.8727-.036 2.4017-.693.6128-1.594.1824-1.802-.8624-.375-1.8745.913-2.9521 1.838-1.5393Zm157.03.5864c.309.3927.877 1.3816 1.265 2.1998l.702 1.485-1.996 3.0622-1.998 3.0638-.199-1.784c-.108-.9808-.498-3.1723-.864-4.8693-.734-3.3924-.795-3.1755 1.023-3.6092 1.366-.3253 1.474-.3023 2.067.4517Zm50.225 1.9566c.474 2.9521-1.762 4.8742-2.84 2.4396-.93-2.1028-.849-3.0195.283-3.2232 2.184-.391 2.38-.3318 2.557.7836Zm234.405-.3088c.575.2201 1.243 1.5261 1.243 2.4297 0 4.2614-11.608 6.5054-14.085 2.7237-1.855-2.8322.407-4.4749 6.228-4.5242 1.385-.0115 3.011-.1824 3.614-.3812 1.237-.409 2.344-.4994 3-.248ZM61.7117 86.456c1.4982.5701 1.9944 2.8963.8148 3.8244-2.2522 1.7726-4.7033-1.3257-2.6646-3.3644.8099-.8099.8822-.828 1.8498-.46Zm335.4893.1495c2.423.7196 2.323 1.237-.12.6226-1.168-.2924-3.069-.552-4.224-.5766-1.155-.023-1.955-.1347-1.779-.2464.565-.3598 4.693-.2251 6.123.2004Zm-73.695 1.6297c1.339 1.3389.357 4.2055-1.327 3.8704-1.912-.3828-2.63-2.2358-1.423-3.6716.894-1.0613 1.822-1.1287 2.75-.1988ZM93.8021 90.172c.2218.8822-.0772 2.0453-.5257 2.0453-1.0842 0-1.6806-1.5212-1.0497-2.6728.4238-.7721 1.3142-.4189 1.5754.6275Zm136.6599-.3696c.545.4534.428 2.065-.196 2.6893-1.165 1.1631-3.286.3137-3.286-1.3176 0-1.8777 1.949-2.6449 3.482-1.3717Zm28.073.0049c1.117 1.2929.27 3.2314-1.412 3.2314-1.454 0-2.478-1.9599-1.599-3.0622.897-1.1236 2.126-1.1926 3.011-.1692ZM65.1649 89.717c0 2.1159-4.061 3.5517-6.2607 2.2112-1.2502-.7639-.9742-.8904 1.1401-.5224 2.1208.3696 3.4991-.097 4.1809-1.4161.4616-.8921.9397-1.0317.9397-.2727Zm234.8511.3022c1.188.5389 1.506 1.1861.731 1.4851-1.161.4452-4.204-.1199-5.229-.9692-1.257-1.0448 2.408-1.4637 4.498-.5159Zm9.806.5783c1.524.2777 6.964 2.8306 6.964 3.2675 0 .1035-1.448.2612-3.217.3483-1.769.0887-4.734.4271-6.589.754-3.871.6802-3.744.7114-3.209-.8082.598-1.6937 1.362-2.6301 2.677-3.2807 1.358-.6719 1.271-.6653 3.374-.2809ZM90.6627 92.4506c2.1225 2.1455-1.5146 5.1354-6.9359 5.7021-3.1196.327-5.6807-1.1417-5.3013-3.0375.3023-1.5146.5011-1.5853 6.5614-2.3492 1.3405-.1692 2.819-.4731 3.2856-.6768.9594-.4173 1.7364-.299 2.3902.3614Zm-14.3712.7458c.58.8838.235 2.1702-.5815 2.1702-.8198 0-1.426-1.2831-1.0235-2.1653.4107-.9035 1.0153-.9051 1.605-.0049Zm170.7295-.3105c3.977.7097 6.98 3.21 5.559 4.6311-.741.7409-3.139.8132-7.716.2316-3.187-.4058-5.017-.5027-6.933-.368-3.464.2448-4.31.1265-4.841-.685-.859-1.311 1.104-2.5053 5.319-3.2347 1.392-.2415 2.808-.5503 3.148-.6867.9-.3614 3.056-.317 5.464.1117Zm-195.4519.7311c2.295 1.0448 1.5606 4.4207-1.3964 6.42-6.1539 4.16-15.6033 2.246-14.0755-2.8535.805-2.686 2.9997-3.6487 7.8296-3.4351 1.8547.0821 3.6634.0296 4.125-.1216 1.1336-.3696 2.7189-.3745 3.5173-.0098Zm205.8899 1.3389c1.168 0 1.303.0542 1.007.4107-.89 1.0743-3.451.2973-4.276-1.2962l-.44-.851 1.181.8674c.948.6982 1.444.8691 2.528.8691Zm-30.263-.6851c.695.4731 1.378.6851 2.208.6851 1.038 0 1.156.0558.862.4107-.626.7524-2.66.5306-3.581-.391-1.367-1.3668-1.07-1.7792.511-.7048Zm-194.9577.3204c.9791 1.3372.0476 3.1015-1.6346 3.1015-1.4095 0-2.1291-.6078-2.1291-1.8021 0-1.7759 2.7271-2.7188 3.7637-1.2994Zm413.8687 1.2271c1.022.5372 1.513 2.4232.631 2.4232-.207 0-.541.1971-.741.4386-.505.6078-1.346-.4222-1.346-1.6461 0-1.3142.49-1.7249 1.456-1.2157Zm65.091 2.2934c.443.2283.81.5684.811.7524.002.184.072.5897.156.9002.137.5077-.033.5997-1.659.8987-2.126.393-2.334.31-2.334-.9118 0-1.628 1.49-2.4346 3.026-1.6395Zm-480.3955.9429c.6029.0017 1.4522-.1823 1.8892-.409 1.1105-.5799 1.2009-.3039.2185.6785-1.219 1.2189-3.6996 1.0099-5.3079-.4453-.7984-.7228-.2859-.9134.9479-.3532.6358.2875 1.6494.5274 2.2523.529Zm411.9525.5339c1.481 1.4815.988 3.9605-1.186 5.9565-4.442 4.083-11.094 3.935-12.618-.279-.327-.902 1.35-2.256 3.251-2.625 2.336-.455 3.517-.93 6.151-2.474 2.705-1.5871 3.313-1.6676 4.402-.5785Zm41.958.0625c1.046.55 1.434 2.277.657 2.921-.534.443-3.757-.424-3.756-1.01.005-1.6318 1.673-2.6618 3.099-1.911Zm79.314 1.327c.654.654.685 1.053.144 1.825-1.046 1.494-3.617.605-3.132-1.082.399-1.396 1.95-1.7809 2.988-.743Zm-229.212.902c.631.523.262 2.979-.676 4.495-1.551 2.508-3.582 1.418-3.012-1.62.49-2.607 2.305-4.023 3.688-2.875Zm166.375-.082c4.462.592 6.435 1.751 6.435 3.783 0 2.75-1.476 2.808-7.984.319-4.377-1.672-5.775-1.935-8.581-1.613-4.044.465-5.178-1.097-1.781-2.453.871-.346 9.378-.373 11.911-.036Zm88.315.693c1.48.766 1.048 2.333-.749 2.718-1.654.353-2.744-1.763-1.395-2.709.761-.533 1.127-.534 2.144-.009Zm-15.888.542c2.46.625 3.028.671 6.223.51 4.475-.227 5.951.626 5.313 3.068-1.278 4.894-19.209 3.854-19.209-1.113 0-.202-.076-.565-.169-.807-.11-.289.176-.764.841-1.391 1.285-1.211 3.014-1.277 7.001-.267Zm-356.101.178c1.518.692 1.267 2.586-.364 2.74-1.568.15-2.292-1.368-1.219-2.554.532-.589.665-.603 1.583-.186Zm125.791 1.784c2.486 1.247 2.658 1.291 5.75 1.469 4.271.244 4.692.476 4.692 2.592 0 1.452-.358 1.912-2.011 2.584-1.216.493-1.567.794-1.963 1.671-.956 2.119-2.78 2.605-3.677.981-.535-.973-.468-.97-1.799-.089-2.743 1.815-4.24 1.013-4.24-2.267 0-1.608-.139-2.213-.821-3.565-2.198-4.352-.572-5.702 4.069-3.376Zm82.694-.798c1.12.928 1.048 2.073-.152 2.442-1.212.375-1.614.158-1.871-1.008-.353-1.609.815-2.438 2.023-1.434Zm-225.401 2.85c1.155.923.538 2.42-1 2.42-1.209 0-1.768-.533-1.497-1.425.442-1.449 1.433-1.843 2.497-.995Zm159.611-.383c2.019 1.349.501 6.363-1.927 6.363-1.291 0-1.825-3.127-.796-4.663 1.166-1.741 1.94-2.222 2.723-1.7Zm-146.522 1.254c1.309.957.377 1.726-2.341 1.931-2.093.158-2.813.347-4.411 1.152-3.289 1.656-5.515-.419-2.297-2.142.289-.155 1.929-.386 3.642-.514 1.712-.128 3.325-.355 3.581-.506.651-.378 1.234-.354 1.826.079Zm-151.5567.627c.7228.918.7162 1.413-.028 2.205-1.145 1.219-3.0326.479-3.0326-1.19 0-1.598 2.0634-2.283 3.0606-1.015Zm486.8827 5.482c1.004.909.082 3.734-.94 2.886-.642-.532-.818-1.961-.335-2.7.5-.761.621-.779 1.275-.186Zm-477.6108-.005c2.1932.588 1.8285 5.609-.4961 6.81-2.8404 1.47-4.9514-1.868-3.1378-4.963 1.0679-1.824 1.9829-2.289 3.6339-1.847Zm-45.5531 1.507c.4797 1.138.2661 1.877-.5405 1.877-1.0974 0-1.9024-1.669-1.1615-2.408.5947-.596 1.3241-.368 1.702.531Zm56.7751-.16c.6982.488.8164 1.878.2283 2.653-.4961.654-1.9467.616-2.6317-.067-1.4736-1.475.6817-3.793 2.4034-2.586Zm445.3778.004c.979.979.76 2.633-.387 2.934-.954.249-1.485-1.587-.816-2.834.343-.643.636-.667 1.203-.1Zm15.867 1.181c2.335 1.997 1.088 3.768-3.116 4.425-1.148.179-2.947.731-4.078 1.249-3.357 1.541-5.506.857-5.506-1.751 0-2.231 1.404-3.053 6.387-3.743 1.761-.243 3.478-.55 3.815-.681.759-.298 1.815-.084 2.498.501Zm-520.2706 2.232c3.1329 3.135-7.2266 9.377-10.8408 6.534-1.9533-1.536-.8526-3.097 3.2577-4.625 1.2042-.447 2.9915-1.237 3.9706-1.754 2.2194-1.173 2.5776-1.188 3.6125-.155Zm-13.88818 3.986c.91828 1.403-.08707 2.646-1.27152 1.575-.48792-.442-.68341-1.738-.31871-2.103.39756-.396 1.14668-.147 1.59023.528Z" fill="#000"/>
</svg>
